<?xml version="1.0" standalone="no"?>
<!DOCTYPE svg PUBLIC "-//W3C//DTD SVG 1.1//EN" "http://www.w3.org/Graphics/SVG/1.1/DTD/svg11.dtd" >
<svg xmlns="http://www.w3.org/2000/svg" xmlns:xlink="http://www.w3.org/1999/xlink" version="1.1">
<metadata>
Created by FontForge 20201107 at Mon Aug 30 15:42:42 2021
 By Jimmy Wärting
Copyright (c) 2021 by Serdar Ozturk. All rights reserved.
</metadata>
<defs>
<font id="Kurye-Light" horiz-adv-x="581" >
  <font-face 
    font-family="Kurye II"
    font-weight="300"
    font-stretch="normal"
    units-per-em="1000"
    panose-1="0 0 0 0 0 0 0 0 0 0"
    ascent="800"
    descent="-200"
    x-height="500"
    cap-height="700"
    bbox="-84 -233 1359 931"
    underline-thickness="50"
    underline-position="-125"
    unicode-range="U+000D-FB05"
  />
<missing-glyph horiz-adv-x="500" 
 />
    <glyph glyph-name="f_f" unicode="ff" horiz-adv-x="647" 
d="M276 660q-161 0 -161 -160h271q0 100 54.5 155t160.5 55v-50q-161 0 -161 -160h161v-54h-161v-446h-54v446h-271v-446h-54v500q0 100 54.5 155t160.5 55v-50z" />
    <glyph glyph-name="fi" unicode="fi" horiz-adv-x="570" 
d="M276 660q-161 0 -161 -160h361v-500h-54v446h-307v-446h-54v500q0 100 54.5 155t160.5 55v-50zM410 670q0 18 10.5 29t28.5 11t28.5 -11t10.5 -29q0 -17 -10.5 -28.5t-28.5 -11.5t-28.5 11.5t-10.5 28.5z" />
    <glyph glyph-name="fl" unicode="fl" horiz-adv-x="544" 
d="M276 660q-161 0 -161 -160h295v200h52v-700h-52v446h-295v-446h-54v500q0 100 54.5 155t160.5 55v-50z" />
    <glyph glyph-name="f_f_i" unicode="ffi" horiz-adv-x="897" 
d="M276 660q-161 0 -161 -160h271q0 100 54.5 155t160.5 55v-50q-161 0 -161 -160h363v-500h-54v446h-309v-446h-54v446h-271v-446h-54v500q0 100 54.5 155t160.5 55v-50zM737 670q0 18 10.5 29t28.5 11t28.5 -11t10.5 -29q0 -17 -10.5 -28.5t-28.5 -11.5t-28.5 11.5
t-10.5 28.5z" />
    <glyph glyph-name="f_f_l" unicode="ffl" horiz-adv-x="870" 
d="M276 660q-161 0 -161 -160h271q0 100 54.5 155t160.5 55v-50q-161 0 -161 -160h297v200h52v-700h-52v446h-297v-446h-54v446h-271v-446h-54v500q0 100 54.5 155t160.5 55v-50z" />
    <glyph glyph-name="f_t" unicode="ft" horiz-adv-x="641" 
d="M276 660q-161 0 -161 -160h263v118h54v-118h161v-54h-161v-246q0 -158 161 -158v-52q-106 0 -160.5 55t-54.5 155v246h-263v-446h-54v500q0 100 54.5 155t160.5 55v-50z" />
    <glyph glyph-name="t_f" unicode="tf" horiz-adv-x="631" 
d="M261 42v-52q-106 0 -160.5 55t-54.5 155v418h54v-118h271q0 100 54.5 155t160.5 55v-50q-161 0 -161 -160h161v-54h-161v-446h-54v446h-271v-246q0 -158 161 -158z" />
    <glyph glyph-name=".notdef" horiz-adv-x="500" 
 />
    <glyph glyph-name="uni0000" horiz-adv-x="0" 
 />
    <glyph glyph-name="uni000D" horiz-adv-x="250" 
 />
    <glyph glyph-name="uni000D" horiz-adv-x="250" 
 />
    <glyph glyph-name="CR" unicode="&#xd;" horiz-adv-x="250" 
 />
    <glyph glyph-name="space" unicode=" " horiz-adv-x="260" 
 />
    <glyph glyph-name="exclam" unicode="!" horiz-adv-x="207" 
d="M80 221l-3 479h53l-5 -479h-45zM64 30q0 17 11.5 28.5t28.5 11.5t28.5 -11.5t11.5 -28.5t-11.5 -28.5t-28.5 -11.5t-28.5 11.5t-11.5 28.5z" />
    <glyph glyph-name="quotedbl" unicode="&#x22;" horiz-adv-x="313" 
d="M52 467l-8 233h59l-10 -233h-41zM220 467l-8 233h59l-10 -233h-41z" />
    <glyph glyph-name="numbersign" unicode="#" horiz-adv-x="817" 
d="M176 0l39 193h-176l10 52h176l43 215h-172l10 53h173l37 187h54l-37 -187h223l37 187h54l-37 -187h168l-10 -53h-169l-43 -215h165l-10 -52h-165l-39 -193h-54l39 193h-223l-38 -193h-55zM280 245h222l43 215h-223z" />
    <glyph glyph-name="dollar" unicode="$" horiz-adv-x="565" 
d="M521 175q0 -71 -56 -125t-156 -59v-68h-52v69q-98 9 -157 66.5t-64 137.5h54q6 -57 55 -105.5t145 -48.5q80 0 128.5 38.5t48.5 96.5q0 46 -23 77t-59.5 46.5t-81 26.5t-88.5 23.5t-81 31t-59.5 55.5t-22.5 90q0 72 57 123.5t148 58.5v68h52v-68q91 -8 146.5 -62.5
t61.5 -124.5h-54q-4 49 -51.5 92.5t-127.5 43.5q-75 2 -126.5 -34.5t-51.5 -96.5q0 -44 23 -73t59.5 -43t81 -24t88.5 -23t80.5 -32.5t59.5 -59t23 -97.5z" />
    <glyph glyph-name="percent" unicode="%" horiz-adv-x="955" 
d="M44 515q0 81 57 138t138 57q82 0 139 -56.5t57 -138.5q0 -81 -57.5 -138.5t-138.5 -57.5q-80 0 -137.5 58t-57.5 138zM239 664q-61 0 -104 -43.5t-43 -105.5t43 -105.5t104 -43.5q62 0 105.5 43.5t43.5 105.5q0 61 -44 105t-105 44zM234 75l463 577l35 -29l-463 -577z
M519 186q0 81 57 138t138 57t138 -57t57 -138t-57 -138.5t-138 -57.5t-138 57.5t-57 138.5zM714 335q-61 0 -104.5 -43.5t-43.5 -105.5t43 -105.5t105 -43.5t105 43.5t43 105.5t-43 105.5t-105 43.5z" />
    <glyph glyph-name="ampersand" unicode="&#x26;" horiz-adv-x="667" 
d="M314 329l164 -159q66 91 84 204h55q-22 -134 -102 -239l144 -139h-71l-105 101q-102 -107 -222 -107q-98 0 -157.5 50t-59.5 133q0 139 155 204q-77 92 -77 171q0 72 51 117t132 45q83 0 142 -63.5t59 -152.5h-54q-3 72 -44 118t-102 46q-58 0 -94 -32t-36 -83
q0 -44 30.5 -92t107.5 -122zM446 132l-178 171q-25 25 -38 39q-62 -24 -97 -68t-35 -97q0 -65 49 -100.5t125 -32.5q95 5 174 88z" />
    <glyph glyph-name="quotesingle" unicode="'" horiz-adv-x="145" 
d="M52 467l-8 233h59l-10 -233h-41z" />
    <glyph glyph-name="parenleft" unicode="(" horiz-adv-x="310" 
d="M210 -132q-138 233 -138 432q0 232 138 423h56q-142 -192 -142 -423q0 -196 141 -432h-55z" />
    <glyph glyph-name="parenright" unicode=")" horiz-adv-x="310" 
d="M101 -132h-56q141 236 141 432q0 231 -142 423h57q138 -191 138 -423q0 -199 -138 -432z" />
    <glyph glyph-name="asterisk" unicode="*" horiz-adv-x="465" 
d="M68 411l-24 46l150 71l-150 74l24 44l148 -88l-8 171h51l-7 -169l143 88l24 -46l-148 -74l148 -73l-24 -44l-143 86l7 -168h-51l8 169z" />
    <glyph glyph-name="plus" unicode="+" horiz-adv-x="603" 
d="M84 325v52h191v192h54v-192h192v-52h-192v-193h-54v193h-191z" />
    <glyph glyph-name="comma" unicode="," horiz-adv-x="191" 
d="M44 -136l32 197h63v-23l-47 -174h-48z" />
    <glyph glyph-name="hyphen" unicode="-" horiz-adv-x="505" 
d="M84 324v52h339v-52h-339z" />
    <glyph glyph-name="period" unicode="." horiz-adv-x="222" 
d="M72 31q0 17 10.5 28.5t28.5 11.5t28.5 -11.5t10.5 -28.5q0 -18 -10.5 -29.5t-28.5 -11.5t-28.5 11.5t-10.5 29.5z" />
    <glyph glyph-name="slash" unicode="/" horiz-adv-x="290" 
d="M36 0l165 700h53l-165 -700h-53z" />
    <glyph glyph-name="zero" unicode="0" horiz-adv-x="639" 
d="M44 350q0 156 77.5 258t197.5 102q121 0 198.5 -101.5t77.5 -258.5t-77.5 -258.5t-198.5 -101.5q-120 0 -197.5 102t-77.5 258zM319 656q-96 0 -158.5 -87t-62.5 -219t62.5 -219t158.5 -87q97 0 159.5 86.5t62.5 219.5t-62.5 219.5t-159.5 86.5z" />
    <glyph glyph-name="one" unicode="1" horiz-adv-x="361" 
d="M225 0v643l-189 -53v55l198 55h45v-700h-54z" />
    <glyph glyph-name="two" unicode="2" horiz-adv-x="630" 
d="M314 656q-81 0 -131.5 -55.5t-50.5 -145.5h-53q0 113 64.5 184t170.5 71q99 0 159 -56t60 -141q0 -54 -33 -109t-120 -143l-207 -207h377v-54h-462v43l248 247q81 83 112 131t31 90q0 63 -44.5 104t-120.5 41z" />
    <glyph glyph-name="three" unicode="3" horiz-adv-x="572" 
d="M289 44q80 0 131.5 47t51.5 121q0 70 -45.5 110.5t-124.5 40.5h-69l-30 35l220 248h-353v54h430v-43l-223 -246h26q103 0 162 -53.5t59 -145.5q0 -97 -66.5 -159.5t-170.5 -62.5q-102 0 -170.5 80t-68.5 196h54q0 -95 53.5 -158.5t133.5 -63.5z" />
    <glyph glyph-name="four" unicode="4" horiz-adv-x="618" 
d="M48 159v43l385 498h43v-489h94v-52h-94v-159h-52v159h-376zM120 211h304v395z" />
    <glyph glyph-name="five" unicode="5" horiz-adv-x="572" 
d="M289 44q80 0 131.5 47t51.5 121q0 73 -46.5 114t-127.5 41h-195l-27 31l21 302h377v-54h-330l-16 -229h175q103 0 162 -55.5t59 -149.5q0 -97 -66.5 -159.5t-170.5 -62.5q-102 0 -170.5 80t-68.5 196h54q0 -95 53.5 -158.5t133.5 -63.5z" />
    <glyph glyph-name="six" unicode="6" horiz-adv-x="585" 
d="M48 229q0 194 110.5 320t326.5 161v-54q-276 -49 -353 -253q67 52 160 52q107 0 176 -64t69 -162q0 -105 -68.5 -172t-176.5 -67t-176 67t-68 172zM292 407q-78 0 -134 -50.5t-56 -127.5q0 -82 53 -133.5t137 -51.5q85 0 139 52t54 133q0 77 -54.5 127.5t-138.5 50.5z
" />
    <glyph glyph-name="seven" unicode="7" horiz-adv-x="516" 
d="M476 700v-43l-264 -657h-58l261 646h-379v54h440z" />
    <glyph glyph-name="eight" unicode="8" horiz-adv-x="568" 
d="M36 194q0 56 38 102.5t100 71.5q-55 25 -88.5 67t-33.5 91q0 78 66 131t166 53t166 -53t66 -131q0 -51 -35 -92.5t-90 -65.5q62 -25 101.5 -72t39.5 -102q0 -85 -70 -144.5t-178 -59.5t-178 59.5t-70 144.5zM284 389q70 0 124 40.5t54 94.5q0 56 -50.5 94t-127.5 38
t-128 -38t-51 -95q0 -53 54 -93.5t125 -40.5zM284 344q-77 0 -136 -44t-59 -104q0 -62 55.5 -107t139.5 -45q83 0 138.5 45t55.5 107q0 59 -59 103.5t-135 44.5z" />
    <glyph glyph-name="nine" unicode="9" horiz-adv-x="585" 
d="M537 472q0 -194 -110.5 -320.5t-326.5 -161.5v54q276 49 354 253q-65 -52 -161 -52q-108 0 -176.5 64t-68.5 163q0 104 68.5 171t176.5 67t176 -67t68 -171zM293 293q81 0 134.5 49.5t57.5 120.5q0 87 -52.5 140t-139.5 53q-84 0 -137.5 -51.5t-53.5 -132.5
q0 -78 53.5 -128.5t137.5 -50.5z" />
    <glyph glyph-name="colon" unicode=":" horiz-adv-x="222" 
d="M72 471q0 17 10.5 28.5t28.5 11.5t28.5 -11.5t10.5 -28.5q0 -18 -10.5 -29.5t-28.5 -11.5t-28.5 11.5t-10.5 29.5zM72 31q0 17 10.5 28.5t28.5 11.5t28.5 -11.5t10.5 -28.5q0 -18 -10.5 -29.5t-28.5 -11.5t-28.5 11.5t-10.5 29.5z" />
    <glyph glyph-name="semicolon" unicode=";" horiz-adv-x="240" 
d="M90 471q0 17 10.5 28.5t28.5 11.5t28.5 -11.5t10.5 -28.5q0 -18 -10.5 -29.5t-28.5 -11.5t-28.5 11.5t-10.5 29.5zM68 -136l32 197h63v-23l-49 -174h-46z" />
    <glyph glyph-name="less" unicode="&#x3c;" horiz-adv-x="454" 
d="M72 338v25l276 239l36 -39l-250 -213l250 -213l-36 -39z" />
    <glyph glyph-name="equal" unicode="=" horiz-adv-x="582" 
d="M85 444v54h414v-54h-414zM84 205v54h414v-54h-414z" />
    <glyph glyph-name="greater" unicode="&#x3e;" horiz-adv-x="454" 
d="M108 98l-36 39l249 213l-249 213l36 39l276 -239v-25z" />
    <glyph glyph-name="question" unicode="?" horiz-adv-x="555" 
d="M215 208q0 48 18 83t44.5 53t57.5 37t57.5 34.5t44.5 45t18 69.5q0 57 -50 93t-127 35q-70 0 -121.5 -39t-58.5 -97h-54q8 82 74.5 135t160.5 53q102 0 166 -50t64 -131q0 -55 -25.5 -93.5t-62 -59.5t-73.5 -40.5t-62.5 -51t-25.5 -76.5h-45zM197 30q0 17 11.5 28.5
t28.5 11.5t28.5 -11.5t11.5 -28.5t-11.5 -28.5t-28.5 -11.5t-28.5 11.5t-11.5 28.5z" />
    <glyph glyph-name="at" unicode="@" horiz-adv-x="905" 
d="M451 710q173 0 291.5 -116.5t118.5 -286.5q0 -101 -36 -163.5t-96 -62.5q-91 0 -119 110q-24 -49 -67 -77.5t-96 -28.5q-79 0 -133.5 59t-54.5 145q0 89 55 146.5t139 57.5q86 0 139.5 -58t53.5 -146q0 -164 77 -164q41 0 66.5 50.5t25.5 131.5q0 151 -105.5 255
t-258.5 104q-150 0 -256 -111t-106 -266q0 -159 107.5 -270.5t261.5 -111.5q114 0 224 48l-1 -42q-103 -50 -223 -50q-173 0 -293.5 124t-120.5 302q0 175 119 298t288 123zM453 447q-68 0 -108 -46.5t-40 -111.5q0 -68 42 -113t106 -45q62 0 104 44t44 110q0 69 -40 115.5
t-108 46.5z" />
    <glyph glyph-name="A" unicode="A" horiz-adv-x="694" 
d="M0 0l318 700h58l318 -700h-58l-92 202h-394l-91 -202h-59zM174 255h346l-173 381z" />
    <glyph glyph-name="B" unicode="B" horiz-adv-x="628" 
d="M84 0v700h229q111 0 183.5 -47.5t72.5 -130.5q0 -129 -143 -168q166 -35 166 -170q0 -87 -74 -135.5t-205 -48.5h-229zM517 514q0 66 -56.5 100.5t-147.5 34.5h-177v-273h177q94 0 149 37.5t55 100.5zM540 190q0 67 -58.5 102.5t-168.5 35.5h-177v-276h177
q109 0 168 35.5t59 102.5z" />
    <glyph glyph-name="C" unicode="C" horiz-adv-x="748" 
d="M384 656q-125 0 -205.5 -86.5t-80.5 -219.5t80.5 -219.5t206.5 -86.5q94 0 170.5 56.5t100.5 141.5h56q-27 -111 -117.5 -181.5t-209.5 -70.5q-151 0 -246 102.5t-95 257.5q0 156 96 258t245 102q119 0 209.5 -70.5t117.5 -181.5h-56q-24 86 -100.5 142t-171.5 56z" />
    <glyph glyph-name="D" unicode="D" horiz-adv-x="712" 
d="M84 0v700h205q164 0 271.5 -100t107.5 -250t-107.5 -250t-271.5 -100h-205zM614 350q0 129 -91 212.5t-234 83.5h-153v-592h153q142 0 233.5 84t91.5 212z" />
    <glyph glyph-name="E" unicode="E" horiz-adv-x="558" 
d="M84 0v700h434v-52h-382v-272h371v-52h-371v-272h382v-52h-434z" />
    <glyph glyph-name="F" unicode="F" horiz-adv-x="558" 
d="M84 0v700h434v-52h-382v-272h371v-52h-371v-324h-52z" />
    <glyph glyph-name="G" unicode="G" horiz-adv-x="766" 
d="M370 659q-120 0 -196 -86.5t-76 -220.5t80 -221t204 -87q122 0 200 73t85 197h-309v52h361q1 -10 1 -32q0 -156 -93.5 -250t-244.5 -94q-148 0 -243 101.5t-95 258.5t91 258.5t233 101.5q105 0 185.5 -57.5t121.5 -159.5h-58q-35 78 -100 122t-147 44z" />
    <glyph glyph-name="H" unicode="H" horiz-adv-x="691" 
d="M84 0v700h52v-324h417v324h54v-700h-54v324h-417v-324h-52z" />
    <glyph glyph-name="I" unicode="I" horiz-adv-x="220" 
d="M84 0v700h52v-700h-52z" />
    <glyph glyph-name="J" unicode="J" horiz-adv-x="601" 
d="M272 46q90 0 141 65t51 186v403h54v-403q0 -145 -67.5 -224t-178.5 -79q-104 0 -170 67.5t-66 179.5h50q0 -88 51.5 -141.5t134.5 -53.5z" />
    <glyph glyph-name="K" unicode="K" horiz-adv-x="627" 
d="M84 0v700h52v-331q46 -5 109 -18l290 349h68l-304 -363q100 -33 169.5 -108t148.5 -229h-59q-93 174 -175.5 237t-246.5 82v-319h-52z" />
    <glyph glyph-name="L" unicode="L" horiz-adv-x="554" 
d="M84 0v700h52v-648h382v-52h-434z" />
    <glyph glyph-name="M" unicode="M" horiz-adv-x="832" 
d="M84 0v700h43l289 -439l289 439h43v-700h-52v593l-271 -404h-18l-271 404v-593h-52z" />
    <glyph glyph-name="N" unicode="N" horiz-adv-x="739" 
d="M84 0v700h43l476 -602v602h54v-700h-45l-476 604v-604h-52z" />
    <glyph glyph-name="O" unicode="O" horiz-adv-x="774" 
d="M44 350q0 150 95 255t248 105q151 0 246 -105t95 -255q0 -149 -95 -254.5t-246 -105.5q-152 0 -247.5 105.5t-95.5 254.5zM387 656q-129 0 -209 -90t-80 -216t80 -216t209 -90q128 0 208 90t80 216t-80 216t-208 90z" />
    <glyph glyph-name="P" unicode="P" horiz-adv-x="600" 
d="M84 0v700h224q115 0 185.5 -63.5t70.5 -160.5t-71 -160.5t-185 -63.5h-172v-252h-52zM511 476q0 74 -55.5 122t-147.5 48h-172v-340h172q92 0 147.5 48t55.5 122z" />
    <glyph glyph-name="Q" unicode="Q" horiz-adv-x="774" 
d="M44 350q0 150 96 255t247 105t246 -105t95 -255q0 -149 -95 -254.5t-246 -105.5t-247 105.5t-96 254.5zM387 656q-128 0 -208.5 -90t-80.5 -216t80.5 -216t208.5 -90t208.5 90t80.5 216t-80.5 216t-208.5 90zM408 -93h168q100 0 100 93h52q0 -139 -149 -139h-167
q-50 0 -79 -23t-29 -63h-53q0 60 42.5 96t114.5 36z" />
    <glyph glyph-name="R" unicode="R" horiz-adv-x="584" 
d="M84 0v700h224q115 0 185.5 -63.5t70.5 -160.5q0 -80 -50 -138.5t-134 -77.5q115 -64 199 -260h-58q-53 121 -123 181.5t-168 70.5h-94v-252h-52zM511 476q0 74 -56 122t-147 48h-172v-340h172q91 0 147 48t56 122z" />
    <glyph glyph-name="S" unicode="S" horiz-adv-x="565" 
d="M521 175q0 -75 -61.5 -130t-169.5 -55q-112 0 -180 59.5t-74 146.5h54q6 -57 55 -105.5t145 -48.5q80 0 128.5 38.5t48.5 96.5q0 46 -23 77t-59.5 46.5t-81 26.5t-88.5 23.5t-81 31t-59.5 55.5t-22.5 90q0 77 64.5 130t165.5 53q103 0 165.5 -56t69.5 -132h-54
q-4 49 -51.5 92.5t-127.5 43.5q-75 2 -126.5 -34.5t-51.5 -96.5q0 -44 23 -73t59.5 -43t81 -24t88.5 -23t80.5 -32.5t59.5 -59t23 -97.5z" />
    <glyph glyph-name="T" unicode="T" horiz-adv-x="591" 
d="M268 0v648h-232v52h519v-52h-233v-648h-54z" />
    <glyph glyph-name="U" unicode="U" horiz-adv-x="697" 
d="M623 285q0 -128 -77 -211.5t-196 -83.5q-120 0 -198 83.5t-78 211.5v415h54v-415q0 -106 62.5 -173.5t159.5 -67.5t159 67.5t62 173.5v415h52v-415z" />
    <glyph glyph-name="V" unicode="V" horiz-adv-x="652" 
d="M297 0l-297 700h58l268 -632l269 632h57l-297 -700h-58z" />
    <glyph glyph-name="W" unicode="W" horiz-adv-x="874" 
d="M229 0l-229 700h55l198 -606l158 606h54l157 -604l197 604h55l-227 -700h-56l-153 595l-154 -595h-55z" />
    <glyph glyph-name="X" unicode="X" horiz-adv-x="619" 
d="M553 0l-243 310l-244 -310h-66l277 352l-274 348h65l241 -306l241 306h66l-274 -348l277 -352h-66z" />
    <glyph glyph-name="Y" unicode="Y" horiz-adv-x="592" 
d="M269 263l-269 437h62l234 -379l234 379h62l-269 -437v-263h-54v263z" />
    <glyph glyph-name="Z" unicode="Z" horiz-adv-x="613" 
d="M59 646v54h495v-41l-426 -605h431v-54h-505v42l427 604h-422z" />
    <glyph glyph-name="bracketleft" unicode="[" horiz-adv-x="331" 
d="M84 -132v855h202v-52h-150v-750h150v-53h-202z" />
    <glyph glyph-name="backslash" unicode="\" horiz-adv-x="290" 
d="M254 0h-53l-165 700h53z" />
    <glyph glyph-name="bracketright" unicode="]" horiz-adv-x="331" 
d="M249 -132h-204v53h150v750h-150v52h204v-855z" />
    <glyph glyph-name="asciicircum" unicode="^" horiz-adv-x="500" 
d="M50 535l116 165h170l116 -165h-160l-41 54l-41 -54h-160z" />
    <glyph glyph-name="underscore" unicode="_" horiz-adv-x="465" 
d="M54 -112v53h357v-53h-357z" />
    <glyph glyph-name="grave" unicode="`" horiz-adv-x="152" 
d="M54 562l-54 138h59l38 -138h-43z" />
    <glyph glyph-name="a" unicode="a" horiz-adv-x="584" 
d="M483 0v109q-31 -55 -83.5 -87t-115.5 -32q-101 0 -170.5 75t-69.5 185q0 114 69.5 187t176.5 73q110 0 178.5 -74t68.5 -186v-250h-54zM290 456q-87 0 -139.5 -60t-52.5 -146q0 -87 55 -146.5t137 -59.5t137.5 59.5t55.5 146.5q0 86 -51.5 146t-141.5 60z" />
    <glyph glyph-name="b" unicode="b" horiz-adv-x="596" 
d="M112 700v-309q31 55 83 87t117 32q103 0 171.5 -74t68.5 -186q0 -114 -69.5 -187t-176.5 -73q-110 0 -178.5 73.5t-68.5 186.5v450h53zM306 44q87 0 139.5 60.5t52.5 145.5q0 87 -55 146.5t-137 59.5t-138 -59.5t-56 -146.5q0 -86 52 -146t142 -60z" />
    <glyph glyph-name="c" unicode="c" 
d="M295 456q-84 0 -140.5 -58t-56.5 -148q0 -89 56.5 -147.5t140.5 -58.5q71 0 123 40t63 106h56q-13 -89 -80.5 -144.5t-161.5 -55.5q-108 0 -179.5 74t-71.5 186q0 113 71.5 186.5t179.5 73.5q97 0 163 -55t79 -144h-56q-12 66 -62 105.5t-124 39.5z" />
    <glyph glyph-name="d" unicode="d" horiz-adv-x="596" 
d="M483 700h54v-450q0 -112 -68.5 -186t-178.5 -74q-107 0 -176.5 73t-69.5 187q0 112 68.5 186t171.5 74q64 0 116 -31.5t83 -85.5v307zM290 44q90 0 141.5 60t51.5 146q0 87 -55.5 146.5t-137.5 59.5t-137 -59.5t-55 -146.5q0 -86 52.5 -146t139.5 -60z" />
    <glyph glyph-name="e" unicode="e" 
d="M470 166h57q-25 -81 -88 -128.5t-149 -47.5q-107 0 -176.5 73.5t-69.5 186.5t69.5 186.5t178.5 73.5q108 0 176.5 -72t68.5 -180q0 -10 -2 -26h-435q5 -87 57.5 -140t132.5 -53q63 0 111.5 34.5t68.5 92.5zM292 462q-82 0 -134.5 -53.5t-57.5 -140.5h384
q-3 85 -56.5 139.5t-135.5 54.5z" />
    <glyph glyph-name="f" unicode="f" horiz-adv-x="320" 
d="M276 660q-161 0 -161 -160h161v-54h-161v-446h-54v500q0 100 54.5 155t160.5 55v-50z" />
    <glyph glyph-name="g" unicode="g" horiz-adv-x="565" 
d="M59 284q0 99 63 162.5t163 63.5q98 0 161.5 -64t63.5 -162t-63.5 -162t-161.5 -64q-73 0 -129 36q-20 -11 -32.5 -30.5t-12.5 -41.5q0 -33 20.5 -51t56.5 -18h170q68 0 109.5 -37.5t42.5 -100.5h-54q-1 38 -29 62t-74 24h-171q-56 0 -90.5 31t-34.5 81q0 34 18 64t47 45
q-63 63 -63 162zM285 462q-76 0 -124.5 -50t-48.5 -128t48 -127.5t125 -49.5q74 0 122.5 50t48.5 127q0 76 -48.5 127t-122.5 51z" />
    <glyph glyph-name="h" unicode="h" horiz-adv-x="592" 
d="M531 250v-250h-54v250q0 89 -48 147.5t-122 58.5q-75 0 -124 -58t-49 -148v-250h-52v700h52v-305q29 54 76 84.5t105 30.5q92 0 154 -74t62 -186z" />
    <glyph glyph-name="i" unicode="i" horiz-adv-x="242" 
d="M82 670q0 18 10.5 29t28.5 11t28.5 -11t10.5 -29q0 -17 -10.5 -28.5t-28.5 -11.5t-28.5 11.5t-10.5 28.5zM94 0v500h54v-500h-54z" />
    <glyph glyph-name="j" unicode="j" horiz-adv-x="210" 
d="M71 670q0 18 10.5 29t28.5 11t28.5 -11t10.5 -29q0 -17 -10.5 -28.5t-28.5 -11.5t-28.5 11.5t-10.5 28.5zM-49 -159q132 0 132 159v500h54v-500q0 -103 -47 -156.5t-139 -53.5v51z" />
    <glyph glyph-name="k" unicode="k" horiz-adv-x="509" 
d="M82 0v700h52v-297q30 50 81.5 78.5t112.5 28.5q73 0 118 -36.5t45 -95.5q0 -65 -56 -108t-148 -55q62 -29 114.5 -80.5t107.5 -134.5h-61q-78 104 -144 152t-170 65v-217h-52zM134 263q43 -5 77 -5q100 0 164 30.5t64 85.5q0 40 -34.5 63.5t-88.5 20.5q-75 -3 -125.5 -56
t-56.5 -139z" />
    <glyph glyph-name="l" unicode="l" horiz-adv-x="216" 
d="M82 0v700h52v-700h-52z" />
    <glyph glyph-name="m" unicode="m" horiz-adv-x="910" 
d="M482 250v-250h-54v250q0 94 -42.5 150t-114.5 56q-74 0 -116.5 -55.5t-42.5 -150.5v-250h-53v250q0 118 58.5 189t153.5 71q63 0 110.5 -32t73.5 -90q26 58 74.5 90t112.5 32q94 0 151.5 -71.5t57.5 -188.5v-250h-52v250q0 94 -43 150t-114 56q-74 0 -117 -55.5
t-43 -150.5z" />
    <glyph glyph-name="n" unicode="n" horiz-adv-x="567" 
d="M508 250v-250h-54v250q0 89 -48 147.5t-122 58.5q-75 0 -123.5 -58t-48.5 -148v-250h-53v250q0 112 64 186t161 74t160.5 -74t63.5 -186z" />
    <glyph glyph-name="o" unicode="o" 
d="M44 250q0 114 69.5 187t177.5 73t177 -73t69 -187q0 -113 -69 -186.5t-177 -73.5t-177.5 73.5t-69.5 186.5zM291 456q-85 0 -139 -57.5t-54 -148.5q0 -90 54 -148t139 -58t138.5 58t53.5 148q0 91 -53.5 148.5t-138.5 57.5z" />
    <glyph glyph-name="p" unicode="p" horiz-adv-x="596" 
d="M112 -200h-53v450q0 113 68.5 186.5t178.5 73.5q107 0 176.5 -73t69.5 -187q0 -112 -68.5 -186t-171.5 -74q-65 0 -117 32t-83 87v-309zM306 456q-90 0 -142 -60t-52 -146q0 -87 56 -146.5t138 -59.5t137 59.5t55 146.5q0 85 -52.5 145.5t-139.5 60.5z" />
    <glyph glyph-name="q" unicode="q" horiz-adv-x="596" 
d="M483 -200v307q-31 -54 -83 -85.5t-116 -31.5q-103 0 -171.5 74t-68.5 186q0 114 69.5 187t176.5 73q110 0 178.5 -74t68.5 -186v-450h-54zM290 456q-87 0 -139.5 -60t-52.5 -146q0 -87 55 -146.5t137 -59.5t137.5 59.5t55.5 146.5q0 86 -51.5 146t-141.5 60z" />
    <glyph glyph-name="r" unicode="r" horiz-adv-x="345" 
d="M320 510v-54q-102 0 -155 -52.5t-53 -153.5v-250h-53v250q0 125 68 192.5t193 67.5z" />
    <glyph glyph-name="s" unicode="s" horiz-adv-x="478" 
d="M434 129q0 -61 -50 -100t-127 -39q-93 0 -151 39.5t-66 113.5h53q6 -51 47.5 -79t115.5 -28q56 0 90 27.5t34 66.5t-33.5 62t-81 33.5t-95 23t-81 43.5t-33.5 83q0 57 51.5 96t128.5 39q87 0 138.5 -43.5t57.5 -117.5h-53q-4 51 -41 83t-103 32q-52 0 -88.5 -26
t-36.5 -63q0 -39 33.5 -61.5t81 -33t95 -23t81 -44t33.5 -84.5z" />
    <glyph glyph-name="t" unicode="t" horiz-adv-x="308" 
d="M261 42v-52q-106 0 -160.5 55t-54.5 155v418h54v-118h161v-54h-161v-246q0 -158 161 -158z" />
    <glyph glyph-name="u" unicode="u" horiz-adv-x="567" 
d="M508 250q0 -112 -63.5 -186t-158.5 -74q-98 0 -162.5 74t-64.5 186v250h54v-250q0 -89 49 -147.5t124 -58.5q73 0 121.5 59t48.5 147v250h52v-250z" />
    <glyph glyph-name="v" unicode="v" horiz-adv-x="507" 
d="M225 0l-225 500h58l196 -436l196 436h57l-224 -500h-58z" />
    <glyph glyph-name="w" unicode="w" horiz-adv-x="772" 
d="M194 0l-194 500h58l162 -420l137 420h58l137 -419l163 419h57l-193 -500h-58l-135 412l-135 -412h-57z" />
    <glyph glyph-name="x" unicode="x" horiz-adv-x="463" 
d="M395 0l-164 210l-165 -210h-66l198 252l-195 248h68l161 -205l160 205h67l-194 -247l198 -253h-68z" />
    <glyph glyph-name="y" unicode="y" horiz-adv-x="565" 
d="M358 -47q68 0 109.5 -37.5t42.5 -100.5h-54q-1 38 -29 62t-74 24h-177q-53 0 -86 31t-33 81q0 35 19.5 66t50.5 45q-68 71 -68 175v201h53v-201q0 -81 49 -136.5t123 -55.5t123 55.5t49 136.5v201h54v-201q0 -99 -63.5 -170t-162.5 -71q-70 0 -124 38q-21 -10 -35 -30.5
t-14 -43.5q0 -33 20.5 -51t56.5 -18h170z" />
    <glyph glyph-name="z" unicode="z" horiz-adv-x="515" 
d="M64 446v54h389v-41l-319 -405h324v-54h-399v43l317 403h-312z" />
    <glyph glyph-name="braceleft" unicode="{" horiz-adv-x="424" 
d="M110 296q42 0 69.5 -33t27.5 -83v-118q0 -68 42 -105.5t117 -37.5v-51q-98 0 -154 51t-56 140v119q0 83 -91 93v50q91 9 91 92v120q0 88 56.5 139t153.5 51v-50q-75 0 -117 -38.5t-42 -106.5v-118q0 -49 -27.5 -81.5t-69.5 -32.5z" />
    <glyph glyph-name="bar" unicode="|" horiz-adv-x="220" 
d="M84 -132v909h52v-909h-52z" />
    <glyph glyph-name="braceright" unicode="}" horiz-adv-x="412" 
d="M314 296q-43 0 -70 32t-27 82v118q0 68 -42 106.5t-117 38.5v50q97 0 153 -51t56 -139v-120q0 -83 92 -92v-50q-92 -11 -92 -93v-119q0 -89 -55.5 -140t-153.5 -51v51q75 0 117 37.5t42 105.5v118q0 50 27.5 83t69.5 33z" />
    <glyph glyph-name="asciitilde" unicode="~" horiz-adv-x="406" 
d="M103 415q28 4 60 -17.5t65 -46t59 -24.5q21 -1 31 22t10 70h42q0 -125 -63 -134q-29 -3 -61.5 18t-63 45t-53.5 25t-37.5 -25.5t-13.5 -66.5h-42q0 58 18 94.5t49 39.5z" />
    <glyph glyph-name="exclamdown" unicode="&#xa1;" horiz-adv-x="207" 
d="M66 470q0 17 11.5 28.5t28.5 11.5t28.5 -11.5t11.5 -28.5t-11.5 -28.5t-28.5 -11.5t-28.5 11.5t-11.5 28.5zM81 -200l3 479h45l5 -479h-53z" />
    <glyph glyph-name="cent" unicode="&#xa2;" 
d="M295 556q-84 0 -140.5 -58t-56.5 -148q0 -89 56.5 -147.5t140.5 -58.5q71 0 123 40t63 106h56q-12 -82 -71 -136.5t-144 -62.5v-91h-52v91q-98 9 -162 81.5t-64 177.5q0 106 64 178t162 81v91h52v-91q87 -8 145 -62t70 -136h-56q-12 66 -62 105.5t-124 39.5z" />
    <glyph glyph-name="sterling" unicode="&#xa3;" horiz-adv-x="671" 
d="M88 54q46 12 73 55.5t27 105.5v111h-106v48h106v98q0 108 58 168t163 60h143v-54h-140q-83 0 -127.5 -44.5t-44.5 -129.5v-98h282v-48h-282v-113q0 -104 -65 -159h415v-54h-502v54z" />
    <glyph glyph-name="currency" unicode="&#xa4;" horiz-adv-x="640" 
d="M99 352q0 81 46 143l-74 73l30 31l74 -72q63 55 148 55q86 0 148 -56l75 73l29 -31l-75 -73q47 -63 47 -143q0 -84 -48 -146l75 -76l-30 -32l-75 76q-61 -53 -146 -53q-86 0 -146 54l-76 -77l-30 32l75 76q-47 61 -47 146zM323 538q-77 0 -129 -53t-52 -133t52 -134
t129 -54t128.5 54t51.5 134t-51.5 133t-128.5 53z" />
    <glyph glyph-name="yen" unicode="&#xa5;" horiz-adv-x="592" 
d="M269 263h-183v44h156l-242 393h62l234 -379l234 379h62l-242 -393h156v-44h-183v-111h183v-44h-183v-108h-54v108h-183v44h183v111z" />
    <glyph glyph-name="brokenbar" unicode="&#xa6;" horiz-adv-x="220" 
d="M84 399v374h54v-374h-54zM84 -132v374h54v-374h-54z" />
    <glyph glyph-name="section" unicode="&#xa7;" horiz-adv-x="565" 
d="M521 265q0 -48 -34 -87t-97 -57q62 -22 96.5 -61t34.5 -110q0 -72 -61 -124.5t-170 -52.5q-112 0 -180 59.5t-74 147.5h54q6 -58 55 -106.5t145 -48.5q79 0 128 36.5t49 91.5q0 50 -31 82t-77 44.5t-100 27t-100 30t-77 54t-31 98.5q0 50 37.5 91t101.5 60
q-66 22 -102.5 58t-36.5 104q0 73 64.5 124t166.5 51q103 0 165.5 -56t68.5 -132h-54q-4 49 -51.5 92.5t-127.5 43.5q-74 0 -126 -34.5t-52 -89.5q0 -42 23 -69.5t59.5 -41t81 -23t89 -22t81 -31.5t59.5 -56.5t23 -92.5zM290 147q80 0 128.5 33.5t48.5 87.5q0 29 -11 51.5
t-25.5 36.5t-42.5 26t-48.5 18t-56.5 15q-72 2 -125 -35t-53 -95q0 -28 11 -49.5t25 -34t43.5 -24t48 -16.5t57.5 -14z" />
    <glyph glyph-name="dieresis" unicode="&#xa8;" horiz-adv-x="431" 
d="M72 670q0 17 11.5 28.5t28.5 11.5t28.5 -11.5t11.5 -28.5t-11.5 -28.5t-28.5 -11.5t-28.5 11.5t-11.5 28.5zM281 670q0 17 11.5 28.5t28.5 11.5t28.5 -11.5t11.5 -28.5t-11.5 -28.5t-28.5 -11.5t-28.5 11.5t-11.5 28.5z" />
    <glyph glyph-name="copyright" unicode="&#xa9;" horiz-adv-x="809" 
d="M44 350q0 150 100.5 255t259.5 105q160 0 260 -105t100 -255q0 -149 -100 -254.5t-260 -105.5q-159 0 -259.5 105.5t-100.5 254.5zM404 672q-143 0 -232.5 -95t-89.5 -227t89.5 -227t232.5 -95q144 0 233 94.5t89 227.5t-89 227.5t-233 94.5zM408 493q-59 0 -98.5 -40.5
t-39.5 -102.5t39.5 -103t98.5 -41q50 0 86 28t44 74h39q-9 -62 -56 -101t-113 -39q-75 0 -125.5 52t-50.5 130q0 79 50.5 130t125.5 51q67 0 113.5 -38.5t55.5 -100.5h-39q-8 46 -43.5 73.5t-86.5 27.5z" />
    <glyph glyph-name="ordfeminine" unicode="&#xaa;" horiz-adv-x="453" 
d="M362 336v74q-51 -82 -143 -82q-74 0 -124.5 55t-50.5 136q0 83 51 137t130 54q81 0 130.5 -54t49.5 -137v-183h-43zM225 666q-63 0 -100 -43t-37 -104q0 -63 39 -105t98 -42q58 0 97.5 42.5t39.5 104.5t-37 104.5t-100 42.5z" />
    <glyph glyph-name="guillemotleft" unicode="&#xab;" horiz-adv-x="740" 
d="M72 338v25l276 239l36 -39l-250 -213l250 -213l-36 -39zM356 338v25l276 239l37 -39l-249 -213l249 -213l-37 -39z" />
    <glyph glyph-name="logicalnot" unicode="&#xac;" horiz-adv-x="684" 
d="M82 467v54h522v-341h-54v287h-468z" />
    <glyph glyph-name="uni00AD" unicode="&#xad;" horiz-adv-x="605" 
d="M84 324v52h437v-52h-437z" />
    <glyph glyph-name="registered" unicode="&#xae;" horiz-adv-x="818" 
d="M44 350q0 150 100.5 255t259.5 105q160 0 260 -105t100 -255q0 -149 -100 -254.5t-260 -105.5q-159 0 -259.5 105.5t-100.5 254.5zM404 672q-143 0 -232.5 -95t-89.5 -227t89.5 -227t232.5 -95q144 0 233 94.5t89 227.5t-89 227.5t-233 94.5zM285 172v354h126
q58 0 93.5 -32.5t35.5 -81.5q0 -38 -22.5 -67t-60.5 -40q50 -36 91 -133h-40q-27 62 -60 92.5t-78 34.5h-47v-127h-38zM502 412q0 35 -24.5 56.5t-66.5 21.5h-88v-153h88q40 0 65.5 21t25.5 54z" />
    <glyph glyph-name="macron" unicode="&#xaf;" horiz-adv-x="444" 
d="M72 600v48h302v-48h-302z" />
    <glyph glyph-name="degree" unicode="&#xb0;" horiz-adv-x="479" 
d="M44 582q0 80 57.5 137.5t137.5 57.5q81 0 138.5 -57.5t57.5 -137.5q0 -81 -57 -138.5t-139 -57.5q-80 0 -137.5 57.5t-57.5 138.5zM239 729q-61 0 -104 -43t-43 -104q0 -62 43 -105.5t104 -43.5q62 0 105.5 43.5t43.5 105.5q0 61 -43.5 104t-105.5 43z" />
    <glyph glyph-name="plusminus" unicode="&#xb1;" horiz-adv-x="603" 
d="M84 405v53h191v192h54v-192h192v-53h-192v-192h-54v192h-191zM84 51v54h437v-54h-437z" />
    <glyph glyph-name="twosuperior" unicode="&#xb2;" horiz-adv-x="424" 
d="M212 670q-42 0 -68 -29t-26 -76h-39q0 65 37 105t96 40q56 0 89.5 -31.5t33.5 -80.5q0 -38 -17 -69.5t-60 -71.5l-111 -108h199v-40h-262v35l138 129q43 42 59 68t16 56q0 32 -23.5 52.5t-61.5 20.5z" />
    <glyph glyph-name="threesuperior" unicode="&#xb3;" horiz-adv-x="364" 
d="M185 339q40 0 66.5 24.5t26.5 61.5t-23 57.5t-64 20.5h-39l-22 27l119 130h-189v40h245v-35l-119 -126h6q58 0 92 -30.5t34 -83.5q0 -55 -38 -90.5t-96 -35.5q-59 0 -97.5 45.5t-38.5 110.5h40q0 -50 27.5 -83t69.5 -33z" />
    <glyph glyph-name="acute" unicode="&#xb4;" horiz-adv-x="152" 
d="M98 562h-43l38 138h59z" />
    <glyph glyph-name="paragraph" unicode="&#xb6;" horiz-adv-x="793" 
d="M667 -121v770h-247v-770h-52v283q-129 0 -211.5 76t-82.5 194q0 119 79 193.5t215 74.5h353v-821h-54z" />
    <glyph glyph-name="periodcentered" unicode="&#xb7;" horiz-adv-x="222" 
d="M72 351q0 17 10.5 28.5t28.5 11.5t28.5 -11.5t10.5 -28.5q0 -18 -10.5 -29.5t-28.5 -11.5t-28.5 11.5t-10.5 29.5z" />
    <glyph glyph-name="cedilla" unicode="&#xb8;" horiz-adv-x="312" 
d="M54 -178q61 -7 106.5 7t45.5 51q0 52 -108 44v95h54v-61q108 -11 108 -82q0 -46 -44.5 -71.5t-113.5 -25.5q-24 0 -48 3v40z" />
    <glyph glyph-name="onesuperior" unicode="&#xb9;" horiz-adv-x="278" 
d="M155 309v349l-119 -29v40l124 31h35v-391h-40z" />
    <glyph glyph-name="ordmasculine" unicode="&#xba;" horiz-adv-x="479" 
d="M44 515q0 81 57 138t138 57q82 0 139 -56.5t57 -138.5q0 -81 -57.5 -138.5t-138.5 -57.5q-80 0 -137.5 58t-57.5 138zM239 664q-61 0 -104 -43.5t-43 -105.5t43 -105.5t104 -43.5q62 0 105.5 43.5t43.5 105.5q0 61 -44 105t-105 44z" />
    <glyph glyph-name="guillemotright" unicode="&#xbb;" horiz-adv-x="740" 
d="M393 98l-37 39l250 213l-250 213l37 39l276 -239v-25zM108 98l-36 39l249 213l-249 213l36 39l276 -239v-25z" />
    <glyph glyph-name="onequarter" unicode="&#xbc;" horiz-adv-x="866" 
d="M155 309v349l-119 -29v40l124 31h35v-391h-40zM228 0l315 700h44l-315 -700h-44zM520 86v34l210 271h35v-266h53v-39h-53v-86h-40v86h-205zM571 125h154v199z" />
    <glyph glyph-name="onehalf" unicode="&#xbd;" horiz-adv-x="928" 
d="M155 309v349l-119 -29v40l124 31h35v-391h-40zM225 0l315 700h44l-315 -700h-44zM715 361q-43 0 -68 -29t-25 -76h-40q0 64 36.5 104.5t95.5 40.5q56 0 90.5 -31.5t34.5 -80.5q0 -38 -17 -69.5t-60 -71.5l-113 -108h199v-40h-261v35l137 129q43 42 59 68t16 56
q0 32 -22.5 52.5t-61.5 20.5z" />
    <glyph glyph-name="threequarters" unicode="&#xbe;" horiz-adv-x="909" 
d="M183 339q41 0 67 24.5t26 61.5t-22.5 57.5t-62.5 20.5h-39l-22 27l118 130h-188v40h243v-35l-117 -126h6q58 0 91 -30.5t33 -83.5q0 -55 -37.5 -90.5t-95.5 -35.5t-96.5 45.5t-38.5 110.5h40q0 -50 27 -83t68 -33zM287 0l315 700h44l-315 -700h-44zM563 86v34l210 271h35
v-266h53v-39h-53v-86h-40v86h-205zM614 125h154v199z" />
    <glyph glyph-name="questiondown" unicode="&#xbf;" horiz-adv-x="555" 
d="M197 470q0 17 11.5 28.5t28.5 11.5t28.5 -11.5t11.5 -28.5t-11.5 -28.5t-28.5 -11.5t-28.5 11.5t-11.5 28.5zM215 292h45q0 -38 18.5 -67t46 -45t60 -35t60 -38t46 -54t18.5 -82q0 -81 -64 -131t-166 -50q-94 0 -160.5 53t-74.5 135h54q7 -58 58.5 -97t121.5 -39
q77 -1 127 35t50 93q0 40 -18 69.5t-44.5 45t-57.5 34.5t-57.5 37t-44.5 53t-18 83z" />
    <glyph glyph-name="Agrave" unicode="&#xc0;" horiz-adv-x="694" 
d="M323 762l-54 138h59l38 -138h-43zM0 0l318 700h58l318 -700h-58l-92 202h-394l-91 -202h-59zM174 255h346l-173 381z" />
    <glyph glyph-name="Aacute" unicode="&#xc1;" horiz-adv-x="694" 
d="M371 762h-43l38 138h59zM0 0l318 700h58l318 -700h-58l-92 202h-394l-91 -202h-59zM174 255h346l-173 381z" />
    <glyph glyph-name="Acircumflex" unicode="&#xc2;" horiz-adv-x="694" 
d="M196 762l121 138h60l121 -138h-56l-95 105l-94 -105h-57zM0 0l318 700h58l318 -700h-58l-92 202h-394l-91 -202h-59zM174 255h346l-173 381z" />
    <glyph glyph-name="Atilde" unicode="&#xc3;" horiz-adv-x="694" 
d="M248 896q28 4 60 -17.5t65 -46t59 -24.5q21 -1 31 22t10 70h42q0 -125 -63 -134q-29 -3 -61.5 18t-63 45t-53.5 25t-37.5 -25.5t-13.5 -66.5h-42q0 58 18 94.5t49 39.5zM0 0l318 700h58l318 -700h-58l-92 202h-394l-91 -202h-59zM174 255h346l-173 381z" />
    <glyph glyph-name="Adieresis" unicode="&#xc4;" horiz-adv-x="694" 
d="M205 870q0 17 11.5 28.5t28.5 11.5t28.5 -11.5t11.5 -28.5t-11.5 -28.5t-28.5 -11.5t-28.5 11.5t-11.5 28.5zM414 870q0 17 11.5 28.5t28.5 11.5t28.5 -11.5t11.5 -28.5t-11.5 -28.5t-28.5 -11.5t-28.5 11.5t-11.5 28.5zM0 0l318 700h58l318 -700h-58l-92 202h-394
l-91 -202h-59zM174 255h346l-173 381z" />
    <glyph glyph-name="Aring" unicode="&#xc5;" horiz-adv-x="694" 
d="M0 0l316 696q-36 8 -57 29.5t-21 51.5q0 37 30.5 61t78.5 24t78.5 -24t30.5 -61q0 -30 -21 -51.5t-57 -29.5l316 -696h-58l-92 202h-394l-91 -202h-59zM346 830q-32 0 -52 -14.5t-20 -38.5q0 -23 20.5 -37.5t51.5 -14.5q33 0 53.5 14.5t20.5 37.5q0 24 -20 38.5t-54 14.5
zM174 255h346l-173 381z" />
    <glyph glyph-name="AE" unicode="&#xc6;" horiz-adv-x="1048" 
d="M536 0v202h-319l-153 -202h-64l528 700h442v-52h-380v-272h369v-52h-369v-272h380v-52h-434zM257 255h279v367z" />
    <glyph glyph-name="Ccedilla" unicode="&#xc7;" horiz-adv-x="748" 
d="M384 656q-125 0 -205.5 -86.5t-80.5 -219.5t80.5 -219.5t206.5 -86.5q94 0 170.5 56.5t100.5 141.5h56q-27 -111 -118 -181.5t-210 -70.5v-32q108 -11 108 -82q0 -46 -44.5 -71.5t-113.5 -25.5q-24 0 -48 3v40q61 -7 106.5 7t45.5 51q0 52 -108 44v70
q-129 19 -207.5 117.5t-78.5 238.5q0 156 96 258t245 102q119 0 209.5 -70.5t117.5 -181.5h-56q-24 86 -100.5 142t-171.5 56z" />
    <glyph glyph-name="Egrave" unicode="&#xc8;" horiz-adv-x="558" 
d="M284 762l-54 138h59l38 -138h-43zM84 0v700h434v-52h-382v-272h371v-52h-371v-272h382v-52h-434z" />
    <glyph glyph-name="Eacute" unicode="&#xc9;" horiz-adv-x="558" 
d="M315 762h-43l38 138h59zM84 0v700h434v-52h-382v-272h371v-52h-371v-272h382v-52h-434z" />
    <glyph glyph-name="Ecircumflex" unicode="&#xca;" horiz-adv-x="558" 
d="M141 762l121 138h60l121 -138h-56l-95 105l-94 -105h-57zM84 0v700h434v-52h-382v-272h371v-52h-371v-272h382v-52h-434z" />
    <glyph glyph-name="Edieresis" unicode="&#xcb;" horiz-adv-x="558" 
d="M136 870q0 17 11.5 28.5t28.5 11.5t28.5 -11.5t11.5 -28.5t-11.5 -28.5t-28.5 -11.5t-28.5 11.5t-11.5 28.5zM345 870q0 17 11.5 28.5t28.5 11.5t28.5 -11.5t11.5 -28.5t-11.5 -28.5t-28.5 -11.5t-28.5 11.5t-11.5 28.5zM84 0v700h434v-52h-382v-272h371v-52h-371v-272
h382v-52h-434z" />
    <glyph glyph-name="Igrave" unicode="&#xcc;" horiz-adv-x="220" 
d="M91 762l-54 138h59l38 -138h-43zM84 0v700h52v-700h-52z" />
    <glyph glyph-name="Iacute" unicode="&#xcd;" horiz-adv-x="220" 
d="M133 762h-43l38 138h59zM84 0v700h52v-700h-52z" />
    <glyph glyph-name="Icircumflex" unicode="&#xce;" horiz-adv-x="220" 
d="M-41 762l121 138h60l121 -138h-56l-95 105l-94 -105h-57zM84 0v700h52v-700h-52z" />
    <glyph glyph-name="Idieresis" unicode="&#xcf;" horiz-adv-x="220" 
d="M-34 870q0 17 11.5 28.5t28.5 11.5t28.5 -11.5t11.5 -28.5t-11.5 -28.5t-28.5 -11.5t-28.5 11.5t-11.5 28.5zM175 870q0 17 11.5 28.5t28.5 11.5t28.5 -11.5t11.5 -28.5t-11.5 -28.5t-28.5 -11.5t-28.5 11.5t-11.5 28.5zM84 0v700h52v-700h-52z" />
    <glyph glyph-name="Eth" unicode="&#xd0;" horiz-adv-x="739" 
d="M111 0v324h-77v52h77v324h205q164 0 271.5 -100t107.5 -250t-107.5 -250t-271.5 -100h-205zM641 350q0 129 -91 212.5t-234 83.5h-153v-270h210v-52h-210v-270h153q142 0 233.5 84t91.5 212z" />
    <glyph glyph-name="Ntilde" unicode="&#xd1;" horiz-adv-x="739" 
d="M270 896q28 4 60 -17.5t65 -46t59 -24.5q21 -1 31 22t10 70h42q0 -125 -63 -134q-29 -3 -61.5 18t-63 45t-53.5 25t-37.5 -25.5t-13.5 -66.5h-42q0 58 18 94.5t49 39.5zM84 0v700h43l476 -602v602h54v-700h-45l-476 604v-604h-52z" />
    <glyph glyph-name="Ograve" unicode="&#xd2;" horiz-adv-x="774" 
d="M364 762l-54 138h59l38 -138h-43zM44 350q0 150 95 255t248 105q151 0 246 -105t95 -255q0 -149 -95 -254.5t-246 -105.5q-152 0 -247.5 105.5t-95.5 254.5zM387 656q-129 0 -209 -90t-80 -216t80 -216t209 -90q128 0 208 90t80 216t-80 216t-208 90z" />
    <glyph glyph-name="Oacute" unicode="&#xd3;" horiz-adv-x="774" 
d="M412 762h-43l38 138h59zM44 350q0 150 95 255t248 105q151 0 246 -105t95 -255q0 -149 -95 -254.5t-246 -105.5q-152 0 -247.5 105.5t-95.5 254.5zM387 656q-129 0 -209 -90t-80 -216t80 -216t209 -90q128 0 208 90t80 216t-80 216t-208 90z" />
    <glyph glyph-name="Ocircumflex" unicode="&#xd4;" horiz-adv-x="774" 
d="M236 762l121 138h60l121 -138h-56l-95 105l-94 -105h-57zM44 350q0 150 95 255t248 105q151 0 246 -105t95 -255q0 -149 -95 -254.5t-246 -105.5q-152 0 -247.5 105.5t-95.5 254.5zM387 656q-129 0 -209 -90t-80 -216t80 -216t209 -90q128 0 208 90t80 216t-80 216
t-208 90z" />
    <glyph glyph-name="Otilde" unicode="&#xd5;" horiz-adv-x="774" 
d="M286 896q28 4 60 -17.5t65 -46t59 -24.5q21 -1 31 22t10 70h42q0 -125 -63 -134q-29 -3 -61.5 18t-63 45t-53.5 25t-37.5 -25.5t-13.5 -66.5h-42q0 58 18 94.5t49 39.5zM44 350q0 150 95 255t248 105q151 0 246 -105t95 -255q0 -149 -95 -254.5t-246 -105.5
q-152 0 -247.5 105.5t-95.5 254.5zM387 656q-129 0 -209 -90t-80 -216t80 -216t209 -90q128 0 208 90t80 216t-80 216t-208 90z" />
    <glyph glyph-name="Odieresis" unicode="&#xd6;" horiz-adv-x="770" 
d="M243 870q0 17 11.5 28.5t28.5 11.5t28.5 -11.5t11.5 -28.5t-11.5 -28.5t-28.5 -11.5t-28.5 11.5t-11.5 28.5zM452 870q0 17 11.5 28.5t28.5 11.5t28.5 -11.5t11.5 -28.5t-11.5 -28.5t-28.5 -11.5t-28.5 11.5t-11.5 28.5zM25 350q0 150 95 255t248 105q151 0 246 -105
t95 -255q0 -149 -95 -254.5t-246 -105.5q-152 0 -247.5 105.5t-95.5 254.5zM368 656q-129 0 -209 -90t-80 -216t80 -216t209 -90q128 0 208 90t80 216t-80 216t-208 90z" />
    <glyph glyph-name="multiply" unicode="&#xd7;" horiz-adv-x="489" 
d="M72 486l36 38l137 -136l136 136l36 -38l-135 -135l135 -136l-36 -38l-136 137l-137 -137l-36 38l136 136z" />
    <glyph glyph-name="Oslash" unicode="&#xd8;" horiz-adv-x="774" 
d="M44 350q0 150 95 255t248 105q31 0 54 -4l17 71h54l-19 -83q108 -34 171.5 -128.5t63.5 -215.5q0 -149 -95 -254.5t-246 -105.5q-32 0 -56 4l-18 -77h-55l21 89q-108 35 -171.5 129.5t-63.5 214.5zM387 656q-129 0 -209 -90t-80 -216q0 -99 52 -179.5t141 -110.5l138 593
q-19 3 -42 3zM481 641l-138 -594q21 -3 44 -3q128 0 208 90t80 216q0 100 -52.5 180.5t-141.5 110.5z" />
    <glyph glyph-name="Ugrave" unicode="&#xd9;" horiz-adv-x="689" 
d="M327 762l-54 138h59l38 -138h-43zM619 285q0 -128 -77 -211.5t-196 -83.5q-120 0 -198 83.5t-78 211.5v415h54v-415q0 -106 62.5 -173.5t159.5 -67.5t159 67.5t62 173.5v415h52v-415z" />
    <glyph glyph-name="Uacute" unicode="&#xda;" horiz-adv-x="689" 
d="M365 762h-43l38 138h59zM619 285q0 -128 -77 -211.5t-196 -83.5q-120 0 -198 83.5t-78 211.5v415h54v-415q0 -106 62.5 -173.5t159.5 -67.5t159 67.5t62 173.5v415h52v-415z" />
    <glyph glyph-name="Ucircumflex" unicode="&#xdb;" horiz-adv-x="689" 
d="M193 762l121 138h60l121 -138h-56l-95 105l-94 -105h-57zM619 285q0 -128 -77 -211.5t-196 -83.5q-120 0 -198 83.5t-78 211.5v415h54v-415q0 -106 62.5 -173.5t159.5 -67.5t159 67.5t62 173.5v415h52v-415z" />
    <glyph glyph-name="Udieresis" unicode="&#xdc;" horiz-adv-x="697" 
d="M204 870q0 17 11.5 28.5t28.5 11.5t28.5 -11.5t11.5 -28.5t-11.5 -28.5t-28.5 -11.5t-28.5 11.5t-11.5 28.5zM413 870q0 17 11.5 28.5t28.5 11.5t28.5 -11.5t11.5 -28.5t-11.5 -28.5t-28.5 -11.5t-28.5 11.5t-11.5 28.5zM623 285q0 -128 -77 -211.5t-196 -83.5
q-120 0 -198 83.5t-78 211.5v415h54v-415q0 -106 62.5 -173.5t159.5 -67.5t159 67.5t62 173.5v415h52v-415z" />
    <glyph glyph-name="Yacute" unicode="&#xdd;" horiz-adv-x="592" 
d="M318 762h-43l38 138h59zM269 263l-269 437h62l234 -379l234 379h62l-269 -437v-263h-54v263z" />
    <glyph glyph-name="Thorn" unicode="&#xde;" horiz-adv-x="590" 
d="M84 0v700h52v-126h171q102 0 170.5 -64.5t68.5 -159.5t-68.5 -159t-170.5 -64h-171v-127h-52zM492 350q0 73 -52.5 121.5t-132.5 48.5h-171v-339h171q80 0 132.5 48.5t52.5 120.5z" />
    <glyph glyph-name="germandbls" unicode="&#xdf;" horiz-adv-x="633" 
d="M82 431q0 134 60 206.5t170 72.5q89 0 148.5 -45t59.5 -112q0 -62 -44.5 -111.5t-138.5 -92.5q112 -6 177 -53.5t65 -123.5q0 -81 -67 -126.5t-184 -45.5h-59v52h57q95 0 147.5 32t52.5 91q0 65 -67 102t-186 37v37q10 7 37.5 21.5t50.5 28.5t48 33.5t39.5 45.5t15.5 55
q3 52 -40 87t-112 35q-87 0 -132.5 -58.5t-45.5 -169.5v-429h-52v431z" />
    <glyph glyph-name="agrave" unicode="&#xe0;" horiz-adv-x="584" 
d="M270 562l-54 138h59l38 -138h-43zM483 0v109q-31 -55 -83.5 -87t-115.5 -32q-101 0 -170.5 75t-69.5 185q0 114 69.5 187t176.5 73q110 0 178.5 -74t68.5 -186v-250h-54zM290 456q-87 0 -139.5 -60t-52.5 -146q0 -87 55 -146.5t137 -59.5t137.5 59.5t55.5 146.5
q0 86 -51.5 146t-141.5 60z" />
    <glyph glyph-name="aacute" unicode="&#xe1;" horiz-adv-x="584" 
d="M315 562h-43l38 138h59zM483 0v109q-31 -55 -83.5 -87t-115.5 -32q-101 0 -170.5 75t-69.5 185q0 114 69.5 187t176.5 73q110 0 178.5 -74t68.5 -186v-250h-54zM290 456q-87 0 -139.5 -60t-52.5 -146q0 -87 55 -146.5t137 -59.5t137.5 59.5t55.5 146.5q0 86 -51.5 146
t-141.5 60z" />
    <glyph glyph-name="acircumflex" unicode="&#xe2;" horiz-adv-x="584" 
d="M142 562l121 138h60l121 -138h-56l-95 105l-94 -105h-57zM483 0v109q-31 -55 -83.5 -87t-115.5 -32q-101 0 -170.5 75t-69.5 185q0 114 69.5 187t176.5 73q110 0 178.5 -74t68.5 -186v-250h-54zM290 456q-87 0 -139.5 -60t-52.5 -146q0 -87 55 -146.5t137 -59.5
t137.5 59.5t55.5 146.5q0 86 -51.5 146t-141.5 60z" />
    <glyph glyph-name="atilde" unicode="&#xe3;" horiz-adv-x="584" 
d="M192 696q28 4 60 -17.5t65 -46t59 -24.5q21 -1 31 22t10 70h42q0 -125 -63 -134q-29 -3 -61.5 18t-63 45t-53.5 25t-37.5 -25.5t-13.5 -66.5h-42q0 58 18 94.5t49 39.5zM483 0v109q-31 -55 -83.5 -87t-115.5 -32q-101 0 -170.5 75t-69.5 185q0 114 69.5 187t176.5 73
q110 0 178.5 -74t68.5 -186v-250h-54zM290 456q-87 0 -139.5 -60t-52.5 -146q0 -87 55 -146.5t137 -59.5t137.5 59.5t55.5 146.5q0 86 -51.5 146t-141.5 60z" />
    <glyph glyph-name="adieresis" unicode="&#xe4;" horiz-adv-x="584" 
d="M148 670q0 17 11.5 28.5t28.5 11.5t28.5 -11.5t11.5 -28.5t-11.5 -28.5t-28.5 -11.5t-28.5 11.5t-11.5 28.5zM357 670q0 17 11.5 28.5t28.5 11.5t28.5 -11.5t11.5 -28.5t-11.5 -28.5t-28.5 -11.5t-28.5 11.5t-11.5 28.5zM483 0v109q-31 -55 -83.5 -87t-115.5 -32
q-101 0 -170.5 75t-69.5 185q0 114 69.5 187t176.5 73q110 0 178.5 -74t68.5 -186v-250h-54zM290 456q-87 0 -139.5 -60t-52.5 -146q0 -87 55 -146.5t137 -59.5t137.5 59.5t55.5 146.5q0 86 -51.5 146t-141.5 60z" />
    <glyph glyph-name="aring" unicode="&#xe5;" horiz-adv-x="584" 
d="M186 646q0 37 30.5 61t78.5 24t78.5 -24t30.5 -61q0 -36 -30.5 -60t-78.5 -24t-78.5 24t-30.5 60zM294 699q-32 0 -52 -14.5t-20 -38.5q0 -23 20.5 -37.5t51.5 -14.5q33 0 53.5 14.5t20.5 37.5q0 24 -20 38.5t-54 14.5zM483 0v109q-31 -55 -83.5 -87t-115.5 -32
q-101 0 -170.5 75t-69.5 185q0 114 69.5 187t176.5 73q110 0 178.5 -74t68.5 -186v-250h-54zM290 456q-87 0 -139.5 -60t-52.5 -146q0 -87 55 -146.5t137 -59.5t137.5 59.5t55.5 146.5q0 86 -51.5 146t-141.5 60z" />
    <glyph glyph-name="ae" unicode="&#xe6;" horiz-adv-x="1036" 
d="M483 0v109q-31 -55 -83.5 -87t-115.5 -32q-101 0 -170.5 75t-69.5 185q0 114 69.5 187t176.5 73q80 0 140 -41.5t88 -111.5q27 71 87.5 112t140.5 41q108 0 176.5 -72t68.5 -180q0 -10 -2 -26h-435q5 -87 57.5 -140t132.5 -53q63 0 111.5 34.5t68.5 92.5h57
q-25 -81 -88 -128.5t-149 -47.5q-66 0 -120 30.5t-87 83.5v-104h-54zM746 462q-82 0 -134.5 -53.5t-57.5 -140.5h384q-3 85 -56.5 139.5t-135.5 54.5zM290 456q-87 0 -139.5 -60t-52.5 -146q0 -87 55 -146.5t137 -59.5t137.5 59.5t55.5 146.5q0 86 -51.5 146t-141.5 60z" />
    <glyph glyph-name="ccedilla" unicode="&#xe7;" 
d="M295 456q-84 0 -140.5 -58t-56.5 -148q0 -89 56.5 -147.5t140.5 -58.5q71 0 123 40t63 106h56q-13 -86 -77.5 -141.5t-155.5 -58.5v-32q108 -11 108 -82q0 -46 -44.5 -71.5t-113.5 -25.5q-24 0 -48 3v40q61 -7 106.5 7t45.5 51q0 52 -108 44v70q-91 15 -148.5 85.5
t-57.5 170.5q0 113 71.5 186.5t179.5 73.5q97 0 163 -55t79 -144h-56q-12 66 -62 105.5t-124 39.5z" />
    <glyph glyph-name="egrave" unicode="&#xe8;" 
d="M271 562l-54 138h59l38 -138h-43zM470 166h57q-25 -81 -88 -128.5t-149 -47.5q-107 0 -176.5 73.5t-69.5 186.5t69.5 186.5t178.5 73.5q108 0 176.5 -72t68.5 -180q0 -10 -2 -26h-435q5 -87 57.5 -140t132.5 -53q63 0 111.5 34.5t68.5 92.5zM292 462q-82 0 -134.5 -53.5
t-57.5 -140.5h384q-3 85 -56.5 139.5t-135.5 54.5z" />
    <glyph glyph-name="eacute" unicode="&#xe9;" 
d="M315 562h-43l38 138h59zM470 166h57q-25 -81 -88 -128.5t-149 -47.5q-107 0 -176.5 73.5t-69.5 186.5t69.5 186.5t178.5 73.5q108 0 176.5 -72t68.5 -180q0 -10 -2 -26h-435q5 -87 57.5 -140t132.5 -53q63 0 111.5 34.5t68.5 92.5zM292 462q-82 0 -134.5 -53.5
t-57.5 -140.5h384q-3 85 -56.5 139.5t-135.5 54.5z" />
    <glyph glyph-name="ecircumflex" unicode="&#xea;" 
d="M140 562l121 138h60l121 -138h-56l-95 105l-94 -105h-57zM470 166h57q-25 -81 -88 -128.5t-149 -47.5q-107 0 -176.5 73.5t-69.5 186.5t69.5 186.5t178.5 73.5q108 0 176.5 -72t68.5 -180q0 -10 -2 -26h-435q5 -87 57.5 -140t132.5 -53q63 0 111.5 34.5t68.5 92.5z
M292 462q-82 0 -134.5 -53.5t-57.5 -140.5h384q-3 85 -56.5 139.5t-135.5 54.5z" />
    <glyph glyph-name="edieresis" unicode="&#xeb;" 
d="M148 670q0 17 11.5 28.5t28.5 11.5t28.5 -11.5t11.5 -28.5t-11.5 -28.5t-28.5 -11.5t-28.5 11.5t-11.5 28.5zM357 670q0 17 11.5 28.5t28.5 11.5t28.5 -11.5t11.5 -28.5t-11.5 -28.5t-28.5 -11.5t-28.5 11.5t-11.5 28.5zM470 166h57q-25 -81 -88 -128.5t-149 -47.5
q-107 0 -176.5 73.5t-69.5 186.5t69.5 186.5t178.5 73.5q108 0 176.5 -72t68.5 -180q0 -10 -2 -26h-435q5 -87 57.5 -140t132.5 -53q63 0 111.5 34.5t68.5 92.5zM292 462q-82 0 -134.5 -53.5t-57.5 -140.5h384q-3 85 -56.5 139.5t-135.5 54.5z" />
    <glyph glyph-name="igrave" unicode="&#xec;" horiz-adv-x="216" 
d="M88 562l-54 138h59l38 -138h-43zM82 0v500h52v-500h-52z" />
    <glyph glyph-name="iacute" unicode="&#xed;" horiz-adv-x="216" 
d="M130 562h-43l38 138h59zM82 0v500h52v-500h-52z" />
    <glyph glyph-name="icircumflex" unicode="&#xee;" horiz-adv-x="216" 
d="M-43 562l121 138h60l121 -138h-56l-95 105l-94 -105h-57zM82 0v500h52v-500h-52z" />
    <glyph glyph-name="idieresis" unicode="&#xef;" horiz-adv-x="216" 
d="M-37 670q0 17 11.5 28.5t28.5 11.5t28.5 -11.5t11.5 -28.5t-11.5 -28.5t-28.5 -11.5t-28.5 11.5t-11.5 28.5zM172 670q0 17 11.5 28.5t28.5 11.5t28.5 -11.5t11.5 -28.5t-11.5 -28.5t-28.5 -11.5t-28.5 11.5t-11.5 28.5zM82 0v500h52v-500h-52z" />
    <glyph glyph-name="eth" unicode="&#xf0;" horiz-adv-x="585" 
d="M537 229q0 -105 -68 -172t-176 -67t-176.5 67t-68.5 172q0 98 69 162t176 64q96 0 161 -52q-51 131 -184 200l-87 -97l-25 22l80 90q-63 28 -148 43l10 49q98 -16 175 -51l67 75l25 -21l-62 -70q232 -125 232 -414zM293 407q-84 0 -137.5 -50.5t-53.5 -127.5
q0 -81 53.5 -133t137.5 -52q88 0 140 53t52 141q-4 70 -57.5 119.5t-134.5 49.5z" />
    <glyph glyph-name="ntilde" unicode="&#xf1;" horiz-adv-x="567" 
d="M184 696q28 4 60 -17.5t65 -46t59 -24.5q21 -1 31 22t10 70h42q0 -125 -63 -134q-29 -3 -61.5 18t-63 45t-53.5 25t-37.5 -25.5t-13.5 -66.5h-42q0 58 18 94.5t49 39.5zM508 250v-250h-54v250q0 89 -48 147.5t-122 58.5q-75 0 -123.5 -58t-48.5 -148v-250h-53v250
q0 112 64 186t161 74t160.5 -74t63.5 -186z" />
    <glyph glyph-name="ograve" unicode="&#xf2;" 
d="M269 562l-54 138h59l38 -138h-43zM44 250q0 114 69.5 187t177.5 73t177 -73t69 -187q0 -113 -69 -186.5t-177 -73.5t-177.5 73.5t-69.5 186.5zM291 456q-85 0 -139 -57.5t-54 -148.5q0 -90 54 -148t139 -58t138.5 58t53.5 148q0 91 -53.5 148.5t-138.5 57.5z" />
    <glyph glyph-name="oacute" unicode="&#xf3;" 
d="M314 562h-43l38 138h59zM44 250q0 114 69.5 187t177.5 73t177 -73t69 -187q0 -113 -69 -186.5t-177 -73.5t-177.5 73.5t-69.5 186.5zM291 456q-85 0 -139 -57.5t-54 -148.5q0 -90 54 -148t139 -58t138.5 58t53.5 148q0 91 -53.5 148.5t-138.5 57.5z" />
    <glyph glyph-name="ocircumflex" unicode="&#xf4;" 
d="M140 562l121 138h60l121 -138h-56l-95 105l-94 -105h-57zM44 250q0 114 69.5 187t177.5 73t177 -73t69 -187q0 -113 -69 -186.5t-177 -73.5t-177.5 73.5t-69.5 186.5zM291 456q-85 0 -139 -57.5t-54 -148.5q0 -90 54 -148t139 -58t138.5 58t53.5 148q0 91 -53.5 148.5
t-138.5 57.5z" />
    <glyph glyph-name="otilde" unicode="&#xf5;" 
d="M192 696q28 4 60 -17.5t65 -46t59 -24.5q21 -1 31 22t10 70h42q0 -125 -63 -134q-29 -3 -61.5 18t-63 45t-53.5 25t-37.5 -25.5t-13.5 -66.5h-42q0 58 18 94.5t49 39.5zM44 250q0 114 69.5 187t177.5 73t177 -73t69 -187q0 -113 -69 -186.5t-177 -73.5t-177.5 73.5
t-69.5 186.5zM291 456q-85 0 -139 -57.5t-54 -148.5q0 -90 54 -148t139 -58t138.5 58t53.5 148q0 91 -53.5 148.5t-138.5 57.5z" />
    <glyph glyph-name="odieresis" unicode="&#xf6;" 
d="M148 670q0 17 11.5 28.5t28.5 11.5t28.5 -11.5t11.5 -28.5t-11.5 -28.5t-28.5 -11.5t-28.5 11.5t-11.5 28.5zM357 670q0 17 11.5 28.5t28.5 11.5t28.5 -11.5t11.5 -28.5t-11.5 -28.5t-28.5 -11.5t-28.5 11.5t-11.5 28.5zM44 250q0 114 69.5 187t177.5 73t177 -73t69 -187
q0 -113 -69 -186.5t-177 -73.5t-177.5 73.5t-69.5 186.5zM291 456q-85 0 -139 -57.5t-54 -148.5q0 -90 54 -148t139 -58t138.5 58t53.5 148q0 91 -53.5 148.5t-138.5 57.5z" />
    <glyph glyph-name="divide" unicode="&#xf7;" horiz-adv-x="576" 
d="M253 549q0 17 11.5 28.5t28.5 11.5t28.5 -11.5t11.5 -28.5t-11.5 -28.5t-28.5 -11.5t-28.5 11.5t-11.5 28.5zM60 323v54h466v-54h-466zM253 151q0 17 11.5 28.5t28.5 11.5t28.5 -11.5t11.5 -28.5t-11.5 -28.5t-28.5 -11.5t-28.5 11.5t-11.5 28.5z" />
    <glyph glyph-name="oslash" unicode="&#xf8;" 
d="M44 250q0 114 69.5 187t177.5 73q21 0 39 -3l17 72h40l-19 -80q78 -24 123.5 -91t45.5 -158q0 -113 -69 -186.5t-177 -73.5q-21 0 -39 3l-18 -76h-41l20 85q-77 24 -123 91t-46 157zM291 456q-85 0 -139 -57.5t-54 -148.5q0 -71 34.5 -123t92.5 -72l93 399q-18 2 -27 2z
M356 446l-92 -400q18 -2 27 -2q85 0 138.5 58t53.5 148q0 71 -34.5 123.5t-92.5 72.5z" />
    <glyph glyph-name="ugrave" unicode="&#xf9;" horiz-adv-x="567" 
d="M266 562l-54 138h59l38 -138h-43zM508 250q0 -112 -63.5 -186t-158.5 -74q-98 0 -162.5 74t-64.5 186v250h54v-250q0 -89 49 -147.5t124 -58.5q73 0 121.5 59t48.5 147v250h52v-250z" />
    <glyph glyph-name="uacute" unicode="&#xfa;" horiz-adv-x="567" 
d="M301 562h-43l38 138h59zM508 250q0 -112 -63.5 -186t-158.5 -74q-98 0 -162.5 74t-64.5 186v250h54v-250q0 -89 49 -147.5t124 -58.5q73 0 121.5 59t48.5 147v250h52v-250z" />
    <glyph glyph-name="ucircumflex" unicode="&#xfb;" horiz-adv-x="567" 
d="M132 562l121 138h60l121 -138h-56l-95 105l-94 -105h-57zM508 250q0 -112 -63.5 -186t-158.5 -74q-98 0 -162.5 74t-64.5 186v250h54v-250q0 -89 49 -147.5t124 -58.5q73 0 121.5 59t48.5 147v250h52v-250z" />
    <glyph glyph-name="udieresis" unicode="&#xfc;" horiz-adv-x="567" 
d="M140 670q0 17 11.5 28.5t28.5 11.5t28.5 -11.5t11.5 -28.5t-11.5 -28.5t-28.5 -11.5t-28.5 11.5t-11.5 28.5zM349 670q0 17 11.5 28.5t28.5 11.5t28.5 -11.5t11.5 -28.5t-11.5 -28.5t-28.5 -11.5t-28.5 11.5t-11.5 28.5zM508 250q0 -112 -63.5 -186t-158.5 -74
q-98 0 -162.5 74t-64.5 186v250h54v-250q0 -89 49 -147.5t124 -58.5q73 0 121.5 59t48.5 147v250h52v-250z" />
    <glyph glyph-name="yacute" unicode="&#xfd;" horiz-adv-x="565" 
d="M300 562h-43l38 138h59zM358 -47q68 0 109.5 -37.5t42.5 -100.5h-54q-1 38 -29 62t-74 24h-177q-53 0 -86 31t-33 81q0 35 19.5 66t50.5 45q-68 71 -68 175v201h53v-201q0 -81 49 -136.5t123 -55.5t123 55.5t49 136.5v201h54v-201q0 -99 -63.5 -170t-162.5 -71
q-70 0 -124 38q-21 -10 -35 -30.5t-14 -43.5q0 -33 20.5 -51t56.5 -18h170z" />
    <glyph glyph-name="thorn" unicode="&#xfe;" horiz-adv-x="596" 
d="M112 -200h-53v900h53v-306q30 54 82 85t118 31q104 0 172 -73t68 -187q0 -112 -68.5 -186t-171.5 -74q-65 0 -117 32t-83 87v-309zM306 456q-90 0 -142 -60t-52 -146q0 -87 56 -146.5t138 -59.5t137 59.5t55 146.5q0 85 -52.5 145.5t-139.5 60.5z" />
    <glyph glyph-name="ydieresis" unicode="&#xff;" horiz-adv-x="565" 
d="M140 670q0 17 11.5 28.5t28.5 11.5t28.5 -11.5t11.5 -28.5t-11.5 -28.5t-28.5 -11.5t-28.5 11.5t-11.5 28.5zM349 670q0 17 11.5 28.5t28.5 11.5t28.5 -11.5t11.5 -28.5t-11.5 -28.5t-28.5 -11.5t-28.5 11.5t-11.5 28.5zM358 -47q68 0 109.5 -37.5t42.5 -100.5h-54
q-1 38 -29 62t-74 24h-177q-53 0 -86 31t-33 81q0 35 19.5 66t50.5 45q-68 71 -68 175v201h53v-201q0 -81 49 -136.5t123 -55.5t123 55.5t49 136.5v201h54v-201q0 -99 -63.5 -170t-162.5 -71q-70 0 -124 38q-21 -10 -35 -30.5t-14 -43.5q0 -33 20.5 -51t56.5 -18h170z" />
    <glyph glyph-name="Amacron" unicode="&#x100;" horiz-adv-x="694" 
d="M198 800v48h302v-48h-302zM0 0l318 700h58l318 -700h-58l-92 202h-394l-91 -202h-59zM174 255h346l-173 381z" />
    <glyph glyph-name="amacron" unicode="&#x101;" horiz-adv-x="584" 
d="M142 600v48h302v-48h-302zM483 0v109q-31 -55 -83.5 -87t-115.5 -32q-101 0 -170.5 75t-69.5 185q0 114 69.5 187t176.5 73q110 0 178.5 -74t68.5 -186v-250h-54zM290 456q-87 0 -139.5 -60t-52.5 -146q0 -87 55 -146.5t137 -59.5t137.5 59.5t55.5 146.5q0 86 -51.5 146
t-141.5 60z" />
    <glyph glyph-name="Abreve" unicode="&#x102;" horiz-adv-x="694" 
d="M350 762q-69 0 -113.5 39.5t-44.5 98.5h42q0 -40 33 -67t83 -27q49 0 81.5 26.5t32.5 67.5h42q0 -59 -44.5 -98.5t-111.5 -39.5zM0 0l318 700h58l318 -700h-58l-92 202h-394l-91 -202h-59zM174 255h346l-173 381z" />
    <glyph glyph-name="abreve" unicode="&#x103;" horiz-adv-x="584" 
d="M294 562q-69 0 -113.5 39.5t-44.5 98.5h42q0 -40 33 -67t83 -27q49 0 81.5 26.5t32.5 67.5h42q0 -59 -44.5 -98.5t-111.5 -39.5zM483 0v109q-31 -55 -83.5 -87t-115.5 -32q-101 0 -170.5 75t-69.5 185q0 114 69.5 187t176.5 73q110 0 178.5 -74t68.5 -186v-250h-54z
M290 456q-87 0 -139.5 -60t-52.5 -146q0 -87 55 -146.5t137 -59.5t137.5 59.5t55.5 146.5q0 86 -51.5 146t-141.5 60z" />
    <glyph glyph-name="Aogonek" unicode="&#x104;" horiz-adv-x="694" 
d="M0 0l318 700h58l318 -700h2q-100 -46 -100 -108q0 -25 16 -40t41 -15q35 0 66 26v-46q-36 -24 -75 -24q-40 0 -68 26.5t-28 64.5q0 37 28 69t74 47h-14l-92 202h-394l-91 -202h-59zM174 255h346l-173 381z" />
    <glyph glyph-name="aogonek" unicode="&#x105;" horiz-adv-x="584" 
d="M483 0v109q-31 -55 -83.5 -87t-115.5 -32q-101 0 -170.5 75t-69.5 185q0 114 69.5 187t176.5 73q110 0 178.5 -74t68.5 -186v-250h1q-100 -46 -100 -108q0 -25 16 -40t41 -15q35 0 66 26v-46q-36 -24 -75 -24q-40 0 -68 26.5t-28 64.5q0 37 28 69t74 47h-9zM290 456
q-87 0 -139.5 -60t-52.5 -146q0 -87 55 -146.5t137 -59.5t137.5 59.5t55.5 146.5q0 86 -51.5 146t-141.5 60z" />
    <glyph glyph-name="Cacute" unicode="&#x106;" horiz-adv-x="748" 
d="M407 762h-43l38 138h59zM384 656q-125 0 -205.5 -86.5t-80.5 -219.5t80.5 -219.5t206.5 -86.5q94 0 170.5 56.5t100.5 141.5h56q-27 -111 -117.5 -181.5t-209.5 -70.5q-151 0 -246 102.5t-95 257.5q0 156 96 258t245 102q119 0 209.5 -70.5t117.5 -181.5h-56
q-24 86 -100.5 142t-171.5 56z" />
    <glyph glyph-name="cacute" unicode="&#x107;" 
d="M317 562h-43l38 138h59zM295 456q-84 0 -140.5 -58t-56.5 -148q0 -89 56.5 -147.5t140.5 -58.5q71 0 123 40t63 106h56q-13 -89 -80.5 -144.5t-161.5 -55.5q-108 0 -179.5 74t-71.5 186q0 113 71.5 186.5t179.5 73.5q97 0 163 -55t79 -144h-56q-12 66 -62 105.5
t-124 39.5z" />
    <glyph glyph-name="Ccircumflex" unicode="&#x108;" horiz-adv-x="748" 
d="M223 762l121 138h60l121 -138h-56l-95 105l-94 -105h-57zM384 656q-125 0 -205.5 -86.5t-80.5 -219.5t80.5 -219.5t206.5 -86.5q94 0 170.5 56.5t100.5 141.5h56q-27 -111 -117.5 -181.5t-209.5 -70.5q-151 0 -246 102.5t-95 257.5q0 156 96 258t245 102
q119 0 209.5 -70.5t117.5 -181.5h-56q-24 86 -100.5 142t-171.5 56z" />
    <glyph glyph-name="ccircumflex" unicode="&#x109;" 
d="M140 562l121 138h60l121 -138h-56l-95 105l-94 -105h-57zM295 456q-84 0 -140.5 -58t-56.5 -148q0 -89 56.5 -147.5t140.5 -58.5q71 0 123 40t63 106h56q-13 -89 -80.5 -144.5t-161.5 -55.5q-108 0 -179.5 74t-71.5 186q0 113 71.5 186.5t179.5 73.5q97 0 163 -55
t79 -144h-56q-12 66 -62 105.5t-124 39.5z" />
    <glyph glyph-name="Cdotaccent" unicode="&#x10a;" horiz-adv-x="748" 
d="M333 870q0 17 11.5 28.5t28.5 11.5t28.5 -11.5t11.5 -28.5t-11.5 -28.5t-28.5 -11.5t-28.5 11.5t-11.5 28.5zM384 656q-125 0 -205.5 -86.5t-80.5 -219.5t80.5 -219.5t206.5 -86.5q94 0 170.5 56.5t100.5 141.5h56q-27 -111 -117.5 -181.5t-209.5 -70.5
q-151 0 -246 102.5t-95 257.5q0 156 96 258t245 102q119 0 209.5 -70.5t117.5 -181.5h-56q-24 86 -100.5 142t-171.5 56z" />
    <glyph glyph-name="cdotaccent" unicode="&#x10b;" 
d="M251 670q0 17 11.5 28.5t28.5 11.5t28.5 -11.5t11.5 -28.5t-11.5 -28.5t-28.5 -11.5t-28.5 11.5t-11.5 28.5zM295 456q-84 0 -140.5 -58t-56.5 -148q0 -89 56.5 -147.5t140.5 -58.5q71 0 123 40t63 106h56q-13 -89 -80.5 -144.5t-161.5 -55.5q-108 0 -179.5 74t-71.5 186
q0 113 71.5 186.5t179.5 73.5q97 0 163 -55t79 -144h-56q-12 66 -62 105.5t-124 39.5z" />
    <glyph glyph-name="Ccaron" unicode="&#x10c;" horiz-adv-x="748" 
d="M223 900h57l94 -105l95 105h56l-121 -138h-60zM384 656q-125 0 -205.5 -86.5t-80.5 -219.5t80.5 -219.5t206.5 -86.5q94 0 170.5 56.5t100.5 141.5h56q-27 -111 -117.5 -181.5t-209.5 -70.5q-151 0 -246 102.5t-95 257.5q0 156 96 258t245 102q119 0 209.5 -70.5
t117.5 -181.5h-56q-24 86 -100.5 142t-171.5 56z" />
    <glyph glyph-name="ccaron" unicode="&#x10d;" 
d="M140 700h57l94 -105l95 105h56l-121 -138h-60zM295 456q-84 0 -140.5 -58t-56.5 -148q0 -89 56.5 -147.5t140.5 -58.5q71 0 123 40t63 106h56q-13 -89 -80.5 -144.5t-161.5 -55.5q-108 0 -179.5 74t-71.5 186q0 113 71.5 186.5t179.5 73.5q97 0 163 -55t79 -144h-56
q-12 66 -62 105.5t-124 39.5z" />
    <glyph glyph-name="Dcaron" unicode="&#x10e;" horiz-adv-x="712" 
d="M183 900h57l94 -105l95 105h56l-121 -138h-60zM84 0v700h205q164 0 271.5 -100t107.5 -250t-107.5 -250t-271.5 -100h-205zM614 350q0 129 -91 212.5t-234 83.5h-153v-592h153q142 0 233.5 84t91.5 212z" />
    <glyph glyph-name="dcaron" unicode="&#x10f;" horiz-adv-x="665" 
d="M483 700h54v-450q0 -112 -68.5 -186t-178.5 -74q-107 0 -176.5 73t-69.5 187q0 112 68.5 186t171.5 74q64 0 116 -31.5t83 -85.5v307zM616 519l28 181h63v-23l-45 -158h-46zM290 44q90 0 141.5 60t51.5 146q0 87 -55.5 146.5t-137.5 59.5t-137 -59.5t-55 -146.5
q0 -86 52.5 -146t139.5 -60z" />
    <glyph glyph-name="Dcroat" unicode="&#x110;" horiz-adv-x="739" 
d="M111 0v324h-77v52h77v324h205q164 0 271.5 -100t107.5 -250t-107.5 -250t-271.5 -100h-205zM641 350q0 129 -91 212.5t-234 83.5h-153v-270h210v-52h-210v-270h153q142 0 233.5 84t91.5 212z" />
    <glyph glyph-name="dcroat" unicode="&#x111;" horiz-adv-x="634" 
d="M483 700h54v-86h119v-42h-119v-322q0 -112 -68.5 -186t-178.5 -74q-107 0 -176.5 73t-69.5 187q0 112 68.5 186t171.5 74q64 0 116 -31.5t83 -85.5v179h-143v42h143v86zM290 44q90 0 141.5 60t51.5 146q0 87 -55.5 146.5t-137.5 59.5t-137 -59.5t-55 -146.5
q0 -86 52.5 -146t139.5 -60z" />
    <glyph glyph-name="Emacron" unicode="&#x112;" horiz-adv-x="558" 
d="M146 800v48h302v-48h-302zM84 0v700h434v-52h-382v-272h371v-52h-371v-272h382v-52h-434z" />
    <glyph glyph-name="emacron" unicode="&#x113;" 
d="M141 600v48h302v-48h-302zM470 166h57q-25 -81 -88 -128.5t-149 -47.5q-107 0 -176.5 73.5t-69.5 186.5t69.5 186.5t178.5 73.5q108 0 176.5 -72t68.5 -180q0 -10 -2 -26h-435q5 -87 57.5 -140t132.5 -53q63 0 111.5 34.5t68.5 92.5zM292 462q-82 0 -134.5 -53.5
t-57.5 -140.5h384q-3 85 -56.5 139.5t-135.5 54.5z" />
    <glyph glyph-name="Ebreve" unicode="&#x114;" horiz-adv-x="558" 
d="M281 762q-69 0 -113.5 39.5t-44.5 98.5h42q0 -40 33 -67t83 -27q49 0 81.5 26.5t32.5 67.5h42q0 -59 -44.5 -98.5t-111.5 -39.5zM84 0v700h434v-52h-382v-272h371v-52h-371v-272h382v-52h-434z" />
    <glyph glyph-name="ebreve" unicode="&#x115;" 
d="M294 562q-69 0 -113.5 39.5t-44.5 98.5h42q0 -40 33 -67t83 -27q49 0 81.5 26.5t32.5 67.5h42q0 -59 -44.5 -98.5t-111.5 -39.5zM470 166h57q-25 -81 -88 -128.5t-149 -47.5q-107 0 -176.5 73.5t-69.5 186.5t69.5 186.5t178.5 73.5q108 0 176.5 -72t68.5 -180
q0 -10 -2 -26h-435q5 -87 57.5 -140t132.5 -53q63 0 111.5 34.5t68.5 92.5zM292 462q-82 0 -134.5 -53.5t-57.5 -140.5h384q-3 85 -56.5 139.5t-135.5 54.5z" />
    <glyph glyph-name="Edotaccent" unicode="&#x116;" horiz-adv-x="558" 
d="M238 870q0 17 11.5 28.5t28.5 11.5t28.5 -11.5t11.5 -28.5t-11.5 -28.5t-28.5 -11.5t-28.5 11.5t-11.5 28.5zM84 0v700h434v-52h-382v-272h371v-52h-371v-272h382v-52h-434z" />
    <glyph glyph-name="edotaccent" unicode="&#x117;" 
d="M251 670q0 17 11.5 28.5t28.5 11.5t28.5 -11.5t11.5 -28.5t-11.5 -28.5t-28.5 -11.5t-28.5 11.5t-11.5 28.5zM470 166h57q-25 -81 -88 -128.5t-149 -47.5q-107 0 -176.5 73.5t-69.5 186.5t69.5 186.5t178.5 73.5q108 0 176.5 -72t68.5 -180q0 -10 -2 -26h-435
q5 -87 57.5 -140t132.5 -53q63 0 111.5 34.5t68.5 92.5zM292 462q-82 0 -134.5 -53.5t-57.5 -140.5h384q-3 85 -56.5 139.5t-135.5 54.5z" />
    <glyph glyph-name="Eogonek" unicode="&#x118;" horiz-adv-x="558" 
d="M84 0v700h434v-52h-382v-272h371v-52h-371v-272h382v-52q-100 -46 -100 -108q0 -25 16 -40t41 -15q35 0 66 26v-46q-36 -24 -75 -24q-40 0 -68 26.5t-28 64.5q0 37 28 69t74 47h-388z" />
    <glyph glyph-name="eogonek" unicode="&#x119;" 
d="M470 166h57q-20 -62 -62.5 -105.5t-101.5 -60.5q-100 -46 -100 -108q0 -25 16 -40t41 -15q35 0 66 26v-46q-36 -24 -75 -24q-40 0 -68 26.5t-28 64.5q0 32 21 60.5t57 45.5q-110 -1 -179.5 74t-69.5 186q0 113 69.5 186.5t178.5 73.5q108 0 176.5 -72t68.5 -180
q0 -10 -2 -26h-435q5 -87 57.5 -140t132.5 -53q63 0 111.5 34.5t68.5 92.5zM292 462q-82 0 -134.5 -53.5t-57.5 -140.5h384q-3 85 -56.5 139.5t-135.5 54.5z" />
    <glyph glyph-name="Ecaron" unicode="&#x11a;" horiz-adv-x="558" 
d="M127 900h57l94 -105l95 105h56l-121 -138h-60zM84 0v700h434v-52h-382v-272h371v-52h-371v-272h382v-52h-434z" />
    <glyph glyph-name="ecaron" unicode="&#x11b;" 
d="M140 700h57l94 -105l95 105h56l-121 -138h-60zM470 166h57q-25 -81 -88 -128.5t-149 -47.5q-107 0 -176.5 73.5t-69.5 186.5t69.5 186.5t178.5 73.5q108 0 176.5 -72t68.5 -180q0 -10 -2 -26h-435q5 -87 57.5 -140t132.5 -53q63 0 111.5 34.5t68.5 92.5zM292 462
q-82 0 -134.5 -53.5t-57.5 -140.5h384q-3 85 -56.5 139.5t-135.5 54.5z" />
    <glyph glyph-name="Gcircumflex" unicode="&#x11c;" horiz-adv-x="766" 
d="M231 762l121 138h60l121 -138h-56l-95 105l-94 -105h-57zM370 659q-120 0 -196 -86.5t-76 -220.5t80 -221t204 -87q122 0 200 73t85 197h-309v52h361q1 -10 1 -32q0 -156 -93.5 -250t-244.5 -94q-148 0 -243 101.5t-95 258.5t91 258.5t233 101.5q105 0 185.5 -57.5
t121.5 -159.5h-58q-35 78 -100 122t-147 44z" />
    <glyph glyph-name="gcircumflex" unicode="&#x11d;" horiz-adv-x="565" 
d="M132 562l121 138h60l121 -138h-56l-95 105l-94 -105h-57zM59 284q0 99 63 162.5t163 63.5q98 0 161.5 -64t63.5 -162t-63.5 -162t-161.5 -64q-73 0 -129 36q-20 -11 -32.5 -30.5t-12.5 -41.5q0 -33 20.5 -51t56.5 -18h170q68 0 109.5 -37.5t42.5 -100.5h-54q-1 38 -29 62
t-74 24h-171q-56 0 -90.5 31t-34.5 81q0 34 18 64t47 45q-63 63 -63 162zM285 462q-76 0 -124.5 -50t-48.5 -128t48 -127.5t125 -49.5q74 0 122.5 50t48.5 127q0 76 -48.5 127t-122.5 51z" />
    <glyph glyph-name="Gbreve" unicode="&#x11e;" horiz-adv-x="770" 
d="M373 762q-69 0 -113.5 39.5t-44.5 98.5h42q0 -40 33 -67t83 -27q49 0 81.5 26.5t32.5 67.5h42q0 -59 -44.5 -98.5t-111.5 -39.5zM351 659q-120 0 -196 -86.5t-76 -220.5t80 -221t204 -87q122 0 200 73t85 197h-309v52h361q1 -10 1 -32q0 -156 -93.5 -250t-244.5 -94
q-148 0 -243 101.5t-95 258.5t91 258.5t233 101.5q105 0 185.5 -57.5t121.5 -159.5h-58q-35 78 -100 122t-147 44z" />
    <glyph glyph-name="gbreve" unicode="&#x11f;" horiz-adv-x="567" 
d="M286 562q-69 0 -113.5 39.5t-44.5 98.5h42q0 -40 33 -67t83 -27q49 0 81.5 26.5t32.5 67.5h42q0 -59 -44.5 -98.5t-111.5 -39.5zM59 284q0 99 63 162.5t163 63.5q98 0 161.5 -64t63.5 -162t-63.5 -162t-161.5 -64q-73 0 -129 36q-20 -11 -32.5 -30.5t-12.5 -41.5
q0 -33 20.5 -51t56.5 -18h170q68 0 109.5 -37.5t42.5 -100.5h-54q-1 38 -29 62t-74 24h-171q-56 0 -90.5 31t-34.5 81q0 34 18 64t47 45q-63 63 -63 162zM285 462q-76 0 -124.5 -50t-48.5 -128t48 -127.5t125 -49.5q74 0 122.5 50t48.5 127q0 76 -48.5 127t-122.5 51z" />
    <glyph glyph-name="Gdotaccent" unicode="&#x120;" horiz-adv-x="766" 
d="M328 870q0 17 11.5 28.5t28.5 11.5t28.5 -11.5t11.5 -28.5t-11.5 -28.5t-28.5 -11.5t-28.5 11.5t-11.5 28.5zM370 659q-120 0 -196 -86.5t-76 -220.5t80 -221t204 -87q122 0 200 73t85 197h-309v52h361q1 -10 1 -32q0 -156 -93.5 -250t-244.5 -94q-148 0 -243 101.5
t-95 258.5t91 258.5t233 101.5q105 0 185.5 -57.5t121.5 -159.5h-58q-35 78 -100 122t-147 44z" />
    <glyph glyph-name="gdotaccent" unicode="&#x121;" horiz-adv-x="565" 
d="M243 670q0 17 11.5 28.5t28.5 11.5t28.5 -11.5t11.5 -28.5t-11.5 -28.5t-28.5 -11.5t-28.5 11.5t-11.5 28.5zM59 284q0 99 63 162.5t163 63.5q98 0 161.5 -64t63.5 -162t-63.5 -162t-161.5 -64q-73 0 -129 36q-20 -11 -32.5 -30.5t-12.5 -41.5q0 -33 20.5 -51t56.5 -18
h170q68 0 109.5 -37.5t42.5 -100.5h-54q-1 38 -29 62t-74 24h-171q-56 0 -90.5 31t-34.5 81q0 34 18 64t47 45q-63 63 -63 162zM285 462q-76 0 -124.5 -50t-48.5 -128t48 -127.5t125 -49.5q74 0 122.5 50t48.5 127q0 76 -48.5 127t-122.5 51z" />
    <glyph glyph-name="uni0122" unicode="&#x122;" horiz-adv-x="766" 
d="M370 659q-120 0 -196 -86.5t-76 -220.5t80 -221t204 -87q122 0 200 73t85 197h-309v52h361q1 -10 1 -32q0 -156 -93.5 -250t-244.5 -94q-148 0 -243 101.5t-95 258.5t91 258.5t233 101.5q105 0 185.5 -57.5t121.5 -159.5h-58q-35 78 -100 122t-147 44zM337 -233l28 181
h63v-23l-45 -158h-46z" />
    <glyph glyph-name="uni0123" unicode="&#x123;" horiz-adv-x="565" 
d="M347 759l-28 -181h-63v23l45 158h46zM59 284q0 99 63 162.5t163 63.5q98 0 161.5 -64t63.5 -162t-63.5 -162t-161.5 -64q-73 0 -129 36q-20 -11 -32.5 -30.5t-12.5 -41.5q0 -33 20.5 -51t56.5 -18h170q68 0 109.5 -37.5t42.5 -100.5h-54q-1 38 -29 62t-74 24h-171
q-56 0 -90.5 31t-34.5 81q0 34 18 64t47 45q-63 63 -63 162zM285 462q-76 0 -124.5 -50t-48.5 -128t48 -127.5t125 -49.5q74 0 122.5 50t48.5 127q0 76 -48.5 127t-122.5 51z" />
    <glyph glyph-name="Hcircumflex" unicode="&#x124;" horiz-adv-x="691" 
d="M194 762l121 138h60l121 -138h-56l-95 105l-94 -105h-57zM84 0v700h52v-324h417v324h54v-700h-54v324h-417v-324h-52z" />
    <glyph glyph-name="hcircumflex" unicode="&#x125;" horiz-adv-x="592" 
d="M-43 762l121 138h60l121 -138h-56l-95 105l-94 -105h-57zM531 250v-250h-54v250q0 89 -48 147.5t-122 58.5q-75 0 -124 -58t-49 -148v-250h-52v700h52v-305q29 54 76 84.5t105 30.5q92 0 154 -74t62 -186z" />
    <glyph glyph-name="Hbar" unicode="&#x126;" horiz-adv-x="691" 
d="M84 0v517h-88v42h88v141h52v-141h417v141h54v-141h88v-42h-88v-517h-54v324h-417v-324h-52zM136 376h417v141h-417v-141z" />
    <glyph glyph-name="hbar" unicode="&#x127;" horiz-adv-x="596" 
d="M535 250v-250h-54v250q0 89 -48 147.5t-122 58.5q-75 0 -124 -58t-49 -148v-250h-52v572h-103v42h103v86h52v-86h161v-42h-161v-177q29 54 76 84.5t105 30.5q92 0 154 -74t62 -186z" />
    <glyph glyph-name="Itilde" unicode="&#x128;" horiz-adv-x="220" 
d="M9 896q28 4 60 -17.5t65 -46t59 -24.5q21 -1 31 22t10 70h42q0 -125 -63 -134q-29 -3 -61.5 18t-63 45t-53.5 25t-37.5 -25.5t-13.5 -66.5h-42q0 58 18 94.5t49 39.5zM84 0v700h52v-700h-52z" />
    <glyph glyph-name="itilde" unicode="&#x129;" horiz-adv-x="216" 
d="M7 696q28 4 60 -17.5t65 -46t59 -24.5q21 -1 31 22t10 70h42q0 -125 -63 -134q-29 -3 -61.5 18t-63 45t-53.5 25t-37.5 -25.5t-13.5 -66.5h-42q0 58 18 94.5t49 39.5zM82 0v500h52v-500h-52z" />
    <glyph glyph-name="Imacron" unicode="&#x12a;" horiz-adv-x="220" 
d="M-41 800v48h302v-48h-302zM84 0v700h52v-700h-52z" />
    <glyph glyph-name="imacron" unicode="&#x12b;" horiz-adv-x="216" 
d="M-43 600v48h302v-48h-302zM82 0v500h52v-500h-52z" />
    <glyph glyph-name="Iogonek" unicode="&#x12e;" horiz-adv-x="220" 
d="M84 0v700h52v-700h2q-100 -46 -100 -108q0 -25 16 -40t41 -15q35 0 66 26v-46q-36 -24 -75 -24q-40 0 -68 26.5t-28 64.5q0 37 28 69t74 47h-8z" />
    <glyph glyph-name="iogonek" unicode="&#x12f;" horiz-adv-x="242" 
d="M82 670q0 18 10.5 29t28.5 11t28.5 -11t10.5 -29q0 -17 -10.5 -28.5t-28.5 -11.5t-28.5 11.5t-10.5 28.5zM94 0v500h54v-500q-100 -46 -100 -108q0 -25 16 -40t41 -15q35 0 66 26v-46q-36 -24 -75 -24q-40 0 -68 26.5t-28 64.5q0 37 28 69t74 47h-8z" />
    <glyph glyph-name="Idotaccent" unicode="&#x130;" horiz-adv-x="220" 
d="M69 870q0 17 11.5 28.5t28.5 11.5t28.5 -11.5t11.5 -28.5t-11.5 -28.5t-28.5 -11.5t-28.5 11.5t-11.5 28.5zM84 0v700h52v-700h-52z" />
    <glyph glyph-name="dotlessi" unicode="&#x131;" horiz-adv-x="216" 
d="M82 0v500h52v-500h-52z" />
    <glyph glyph-name="IJ" unicode="&#x132;" horiz-adv-x="821" 
d="M84 0v700h52v-700h-52zM492 46q90 0 141 65t51 186v403h54v-403q0 -145 -67.5 -224t-178.5 -79q-104 0 -170 67.5t-66 179.5h50q0 -88 51.5 -141.5t134.5 -53.5z" />
    <glyph glyph-name="ij" unicode="&#x133;" horiz-adv-x="451" 
d="M82 670q0 18 10.5 29t28.5 11t28.5 -11t10.5 -29q0 -17 -10.5 -28.5t-28.5 -11.5t-28.5 11.5t-10.5 28.5zM313 670q0 18 10.5 29t28.5 11t28.5 -11t10.5 -29q0 -17 -10.5 -28.5t-28.5 -11.5t-28.5 11.5t-10.5 28.5zM94 0v500h54v-500h-54zM193 -159q132 0 132 159v500h54
v-500q0 -103 -47 -156.5t-139 -53.5v51z" />
    <glyph glyph-name="Jcircumflex" unicode="&#x134;" horiz-adv-x="601" 
d="M341 762l121 138h60l121 -138h-56l-95 105l-94 -105h-57zM272 46q90 0 141 65t51 186v403h54v-403q0 -145 -67.5 -224t-178.5 -79q-104 0 -170 67.5t-66 179.5h50q0 -88 51.5 -141.5t134.5 -53.5z" />
    <glyph glyph-name="jcircumflex" unicode="&#x135;" horiz-adv-x="210" 
d="M-47 562l121 138h60l121 -138h-56l-95 105l-94 -105h-57zM-49 -159q132 0 132 159v500h54v-500q0 -103 -47 -156.5t-139 -53.5v51z" />
    <glyph glyph-name="uni0136" unicode="&#x136;" horiz-adv-x="627" 
d="M84 0v700h52v-331q46 -5 109 -18l290 349h68l-304 -363q100 -33 169.5 -108t148.5 -229h-59q-93 174 -175.5 237t-246.5 82v-319h-52zM268 -233l28 181h63v-23l-45 -158h-46z" />
    <glyph glyph-name="uni0137" unicode="&#x137;" horiz-adv-x="509" 
d="M82 0v700h52v-297q30 50 81.5 78.5t112.5 28.5q73 0 118 -36.5t45 -95.5q0 -65 -56 -108t-148 -55q62 -29 114.5 -80.5t107.5 -134.5h-61q-78 104 -144 152t-170 65v-217h-52zM134 263q43 -5 77 -5q100 0 164 30.5t64 85.5q0 40 -34.5 63.5t-88.5 20.5q-75 -3 -125.5 -56
t-56.5 -139zM217 -233l28 181h63v-23l-45 -158h-46z" />
    <glyph glyph-name="kgreenlandic" unicode="&#x138;" horiz-adv-x="528" 
d="M84 0v500h52v-214q46 -7 90 -20l215 234h63l-230 -251q63 -28 115.5 -83.5t128.5 -165.5h-59q-94 128 -154.5 172t-168.5 62v-234h-52z" />
    <glyph glyph-name="Lacute" unicode="&#x139;" horiz-adv-x="554" 
d="M136 762h-43l38 138h59zM84 0v700h52v-648h382v-52h-434z" />
    <glyph glyph-name="lacute" unicode="&#x13a;" horiz-adv-x="216" 
d="M130 762h-43l38 138h59zM82 0v700h52v-700h-52z" />
    <glyph glyph-name="uni013B" unicode="&#x13b;" horiz-adv-x="554" 
d="M84 0v700h52v-648h382v-52h-434zM249 -233l28 181h63v-23l-45 -158h-46z" />
    <glyph glyph-name="uni013C" unicode="&#x13c;" horiz-adv-x="216" 
d="M82 0v700h52v-700h-52zM48 -233l28 181h63v-23l-45 -158h-46z" />
    <glyph glyph-name="Lcaron" unicode="&#x13d;" horiz-adv-x="554" 
d="M84 0v700h52v-648h382v-52h-434zM353 519l28 181h63v-23l-45 -158h-46z" />
    <glyph glyph-name="lcaron" unicode="&#x13e;" horiz-adv-x="275" 
d="M82 0v700h52v-700h-52zM205 519l28 181h63v-23l-45 -158h-46z" />
    <glyph glyph-name="Ldot" unicode="&#x13f;" horiz-adv-x="554" 
d="M84 0v700h52v-648h382v-52h-434zM354 399q0 17 11.5 28.5t28.5 11.5t28.5 -11.5t11.5 -28.5t-11.5 -28.5t-28.5 -11.5t-28.5 11.5t-11.5 28.5z" />
    <glyph glyph-name="ldot" unicode="&#x140;" horiz-adv-x="349" 
d="M82 0v700h52v-700h-52zM225 399q0 17 11.5 28.5t28.5 11.5t28.5 -11.5t11.5 -28.5t-11.5 -28.5t-28.5 -11.5t-28.5 11.5t-11.5 28.5z" />
    <glyph glyph-name="Lslash" unicode="&#x141;" horiz-adv-x="554" 
d="M84 0v343l-141 -30v54l141 30v303h52v-292l198 43v-54l-198 -43v-302h382v-52h-434z" />
    <glyph glyph-name="lslash" unicode="&#x142;" horiz-adv-x="236" 
d="M92 0v351l-76 -25v53l76 25v296h52v-278l75 25v-53l-75 -25v-369h-52z" />
    <glyph glyph-name="Nacute" unicode="&#x143;" horiz-adv-x="739" 
d="M396 762h-43l38 138h59zM84 0v700h43l476 -602v602h54v-700h-45l-476 604v-604h-52z" />
    <glyph glyph-name="nacute" unicode="&#x144;" horiz-adv-x="567" 
d="M300 562h-43l38 138h59zM508 250v-250h-54v250q0 89 -48 147.5t-122 58.5q-75 0 -123.5 -58t-48.5 -148v-250h-53v250q0 112 64 186t161 74t160.5 -74t63.5 -186z" />
    <glyph glyph-name="uni0145" unicode="&#x145;" horiz-adv-x="739" 
d="M84 0v700h43l476 -602v602h54v-700h-45l-476 604v-604h-52zM325 -233l28 181h63v-23l-45 -158h-46z" />
    <glyph glyph-name="uni0146" unicode="&#x146;" horiz-adv-x="567" 
d="M508 250v-250h-54v250q0 89 -48 147.5t-122 58.5q-75 0 -123.5 -58t-48.5 -148v-250h-53v250q0 112 64 186t161 74t160.5 -74t63.5 -186zM225 -233l28 181h63v-23l-45 -158h-46z" />
    <glyph glyph-name="Ncaron" unicode="&#x147;" horiz-adv-x="739" 
d="M219 900h57l94 -105l95 105h56l-121 -138h-60zM84 0v700h43l476 -602v602h54v-700h-45l-476 604v-604h-52z" />
    <glyph glyph-name="ncaron" unicode="&#x148;" horiz-adv-x="567" 
d="M132 700h57l94 -105l95 105h56l-121 -138h-60zM508 250v-250h-54v250q0 89 -48 147.5t-122 58.5q-75 0 -123.5 -58t-48.5 -148v-250h-53v250q0 112 64 186t161 74t160.5 -74t63.5 -186z" />
    <glyph glyph-name="napostrophe" unicode="&#x149;" horiz-adv-x="575" 
d="M33 485l28 181h63v-23l-45 -158h-46zM516 250v-250h-54v250q0 89 -48 147.5t-122 58.5q-75 0 -123.5 -58t-48.5 -148v-250h-53v250q0 112 64 186t161 74t160.5 -74t63.5 -186z" />
    <glyph glyph-name="Omacron" unicode="&#x14c;" horiz-adv-x="774" 
d="M236 800v48h302v-48h-302zM44 350q0 150 95 255t248 105q151 0 246 -105t95 -255q0 -149 -95 -254.5t-246 -105.5q-152 0 -247.5 105.5t-95.5 254.5zM387 656q-129 0 -209 -90t-80 -216t80 -216t209 -90q128 0 208 90t80 216t-80 216t-208 90z" />
    <glyph glyph-name="omacron" unicode="&#x14d;" 
d="M141 600v48h302v-48h-302zM44 250q0 114 69.5 187t177.5 73t177 -73t69 -187q0 -113 -69 -186.5t-177 -73.5t-177.5 73.5t-69.5 186.5zM291 456q-85 0 -139 -57.5t-54 -148.5q0 -90 54 -148t139 -58t138.5 58t53.5 148q0 91 -53.5 148.5t-138.5 57.5z" />
    <glyph glyph-name="Obreve" unicode="&#x14e;" horiz-adv-x="774" 
d="M388 762q-69 0 -113.5 39.5t-44.5 98.5h42q0 -40 33 -67t83 -27q49 0 81.5 26.5t32.5 67.5h42q0 -59 -44.5 -98.5t-111.5 -39.5zM44 350q0 150 95 255t248 105q151 0 246 -105t95 -255q0 -149 -95 -254.5t-246 -105.5q-152 0 -247.5 105.5t-95.5 254.5zM387 656
q-129 0 -209 -90t-80 -216t80 -216t209 -90q128 0 208 90t80 216t-80 216t-208 90z" />
    <glyph glyph-name="obreve" unicode="&#x14f;" 
d="M294 562q-69 0 -113.5 39.5t-44.5 98.5h42q0 -40 33 -67t83 -27q49 0 81.5 26.5t32.5 67.5h42q0 -59 -44.5 -98.5t-111.5 -39.5zM44 250q0 114 69.5 187t177.5 73t177 -73t69 -187q0 -113 -69 -186.5t-177 -73.5t-177.5 73.5t-69.5 186.5zM291 456q-85 0 -139 -57.5
t-54 -148.5q0 -90 54 -148t139 -58t138.5 58t53.5 148q0 91 -53.5 148.5t-138.5 57.5z" />
    <glyph glyph-name="Ohungarumlaut" unicode="&#x150;" horiz-adv-x="774" 
d="M317 762h-43l38 138h59zM488 762h-43l38 138h59zM44 350q0 150 95 255t248 105q151 0 246 -105t95 -255q0 -149 -95 -254.5t-246 -105.5q-152 0 -247.5 105.5t-95.5 254.5zM387 656q-129 0 -209 -90t-80 -216t80 -216t209 -90q128 0 208 90t80 216t-80 216t-208 90z" />
    <glyph glyph-name="ohungarumlaut" unicode="&#x151;" 
d="M221 562h-43l38 138h59zM392 562h-43l38 138h59zM44 250q0 114 69.5 187t177.5 73t177 -73t69 -187q0 -113 -69 -186.5t-177 -73.5t-177.5 73.5t-69.5 186.5zM291 456q-85 0 -139 -57.5t-54 -148.5q0 -90 54 -148t139 -58t138.5 58t53.5 148q0 91 -53.5 148.5
t-138.5 57.5z" />
    <glyph glyph-name="OE" unicode="&#x152;" horiz-adv-x="1160" 
d="M44 350q0 150 95 255t248 105q95 0 170 -44t119 -119v153h434v-52h-382v-272h371v-52h-371v-272h382v-52h-434v154q-44 -76 -119 -120t-170 -44q-152 0 -247.5 105.5t-95.5 254.5zM387 656q-129 0 -209 -90t-80 -216t80 -216t209 -90q128 0 208 90t80 216t-80 216
t-208 90z" />
    <glyph glyph-name="oe" unicode="&#x153;" horiz-adv-x="1022" 
d="M44 250q0 114 69.5 187t177.5 73q75 0 132 -36t87 -99q30 63 88 99t133 36q108 0 176.5 -72t68.5 -180q0 -10 -2 -26h-435q5 -87 57.5 -140t132.5 -53q63 0 111.5 34.5t68.5 92.5h57q-25 -81 -88 -128.5t-149 -47.5q-73 0 -131 36.5t-88 98.5q-30 -63 -87.5 -99
t-131.5 -36q-108 0 -177.5 73.5t-69.5 186.5zM731 462q-82 0 -134.5 -53.5t-57.5 -140.5h384q-3 85 -56.5 139.5t-135.5 54.5zM291 456q-85 0 -139 -57.5t-54 -148.5q0 -90 54 -148t139 -58t138.5 58t53.5 148q0 91 -53.5 148.5t-138.5 57.5z" />
    <glyph glyph-name="Racute" unicode="&#x154;" horiz-adv-x="584" 
d="M309 762h-43l38 138h59zM84 0v700h224q115 0 185.5 -63.5t70.5 -160.5q0 -80 -50 -138.5t-134 -77.5q115 -64 199 -260h-58q-53 121 -123 181.5t-168 70.5h-94v-252h-52zM511 476q0 74 -56 122t-147 48h-172v-340h172q91 0 147 48t56 122z" />
    <glyph glyph-name="racute" unicode="&#x155;" horiz-adv-x="345" 
d="M207 562h-43l38 138h59zM320 510v-54q-102 0 -155 -52.5t-53 -153.5v-250h-53v250q0 125 68 192.5t193 67.5z" />
    <glyph glyph-name="uni0156" unicode="&#x156;" horiz-adv-x="584" 
d="M84 0v700h224q115 0 185.5 -63.5t70.5 -160.5q0 -80 -50 -138.5t-134 -77.5q115 -64 199 -260h-58q-53 121 -123 181.5t-168 70.5h-94v-252h-52zM511 476q0 74 -56 122t-147 48h-172v-340h172q91 0 147 48t56 122zM248 -233l28 181h63v-23l-45 -158h-46z" />
    <glyph glyph-name="uni0157" unicode="&#x157;" horiz-adv-x="345" 
d="M320 510v-54q-102 0 -155 -52.5t-53 -153.5v-250h-53v250q0 125 68 192.5t193 67.5zM24 -233l28 181h63v-23l-45 -158h-46z" />
    <glyph glyph-name="Rcaron" unicode="&#x158;" horiz-adv-x="584" 
d="M141 900h57l94 -105l95 105h56l-121 -138h-60zM84 0v700h224q115 0 185.5 -63.5t70.5 -160.5q0 -80 -50 -138.5t-134 -77.5q115 -64 199 -260h-58q-53 121 -123 181.5t-168 70.5h-94v-252h-52zM511 476q0 74 -56 122t-147 48h-172v-340h172q91 0 147 48t56 122z" />
    <glyph glyph-name="rcaron" unicode="&#x159;" horiz-adv-x="345" 
d="M22 700h57l94 -105l95 105h56l-121 -138h-60zM320 510v-54q-102 0 -155 -52.5t-53 -153.5v-250h-53v250q0 125 68 192.5t193 67.5z" />
    <glyph glyph-name="Sacute" unicode="&#x15a;" horiz-adv-x="565" 
d="M303 762h-43l38 138h59zM521 175q0 -75 -61.5 -130t-169.5 -55q-112 0 -180 59.5t-74 146.5h54q6 -57 55 -105.5t145 -48.5q80 0 128.5 38.5t48.5 96.5q0 46 -23 77t-59.5 46.5t-81 26.5t-88.5 23.5t-81 31t-59.5 55.5t-22.5 90q0 77 64.5 130t165.5 53q103 0 165.5 -56
t69.5 -132h-54q-4 49 -51.5 92.5t-127.5 43.5q-75 2 -126.5 -34.5t-51.5 -96.5q0 -44 23 -73t59.5 -43t81 -24t88.5 -23t80.5 -32.5t59.5 -59t23 -97.5z" />
    <glyph glyph-name="sacute" unicode="&#x15b;" horiz-adv-x="478" 
d="M262 562h-43l38 138h59zM434 129q0 -61 -50 -100t-127 -39q-93 0 -151 39.5t-66 113.5h53q6 -51 47.5 -79t115.5 -28q56 0 90 27.5t34 66.5t-33.5 62t-81 33.5t-95 23t-81 43.5t-33.5 83q0 57 51.5 96t128.5 39q87 0 138.5 -43.5t57.5 -117.5h-53q-4 51 -41 83t-103 32
q-52 0 -88.5 -26t-36.5 -63q0 -39 33.5 -61.5t81 -33t95 -23t81 -44t33.5 -84.5z" />
    <glyph glyph-name="Scircumflex" unicode="&#x15c;" horiz-adv-x="565" 
d="M132 762l121 138h60l121 -138h-56l-95 105l-94 -105h-57zM521 175q0 -75 -61.5 -130t-169.5 -55q-112 0 -180 59.5t-74 146.5h54q6 -57 55 -105.5t145 -48.5q80 0 128.5 38.5t48.5 96.5q0 46 -23 77t-59.5 46.5t-81 26.5t-88.5 23.5t-81 31t-59.5 55.5t-22.5 90
q0 77 64.5 130t165.5 53q103 0 165.5 -56t69.5 -132h-54q-4 49 -51.5 92.5t-127.5 43.5q-75 2 -126.5 -34.5t-51.5 -96.5q0 -44 23 -73t59.5 -43t81 -24t88.5 -23t80.5 -32.5t59.5 -59t23 -97.5z" />
    <glyph glyph-name="scircumflex" unicode="&#x15d;" horiz-adv-x="478" 
d="M88 562l121 138h60l121 -138h-56l-95 105l-94 -105h-57zM434 129q0 -61 -50 -100t-127 -39q-93 0 -151 39.5t-66 113.5h53q6 -51 47.5 -79t115.5 -28q56 0 90 27.5t34 66.5t-33.5 62t-81 33.5t-95 23t-81 43.5t-33.5 83q0 57 51.5 96t128.5 39q87 0 138.5 -43.5
t57.5 -117.5h-53q-4 51 -41 83t-103 32q-52 0 -88.5 -26t-36.5 -63q0 -39 33.5 -61.5t81 -33t95 -23t81 -44t33.5 -84.5z" />
    <glyph glyph-name="Scedilla" unicode="&#x15e;" horiz-adv-x="565" 
d="M521 175q0 -74 -60.5 -129t-166.5 -56v-32q108 -11 108 -82q0 -46 -44.5 -71.5t-113.5 -25.5q-24 0 -48 3v40q61 -7 106.5 7t45.5 51q0 52 -108 44v70q-91 13 -145 69.5t-59 132.5h54q6 -57 55 -105.5t145 -48.5q80 0 128.5 38.5t48.5 96.5q0 46 -23 77t-59.5 46.5
t-81 26.5t-88.5 23.5t-81 31t-59.5 55.5t-22.5 90q0 77 64.5 130t165.5 53q103 0 165.5 -56t69.5 -132h-54q-4 49 -51.5 92.5t-127.5 43.5q-75 2 -126.5 -34.5t-51.5 -96.5q0 -44 23 -73t59.5 -43t81 -24t88.5 -23t80.5 -32.5t59.5 -59t23 -97.5z" />
    <glyph glyph-name="scedilla" unicode="&#x15f;" horiz-adv-x="478" 
d="M434 129q0 -69 -55.5 -104t-128.5 -35v-32q108 -11 108 -82q0 -46 -44.5 -71.5t-113.5 -25.5q-24 0 -48 3v40q61 -7 106.5 7t45.5 51q0 52 -108 44v71q-67 11 -108 49t-48 99h53q6 -51 47.5 -79t115.5 -28q56 0 90 27.5t34 66.5t-33.5 62t-81 33.5t-95 23t-81 43.5
t-33.5 83q0 57 51.5 96t128.5 39q87 0 138.5 -43.5t57.5 -117.5h-53q-4 51 -41 83t-103 32q-52 0 -88.5 -26t-36.5 -63q0 -39 33.5 -61.5t81 -33t95 -23t81 -44t33.5 -84.5z" />
    <glyph glyph-name="Scaron" unicode="&#x160;" horiz-adv-x="565" 
d="M132 900h57l94 -105l95 105h56l-121 -138h-60zM521 175q0 -75 -61.5 -130t-169.5 -55q-112 0 -180 59.5t-74 146.5h54q6 -57 55 -105.5t145 -48.5q80 0 128.5 38.5t48.5 96.5q0 46 -23 77t-59.5 46.5t-81 26.5t-88.5 23.5t-81 31t-59.5 55.5t-22.5 90q0 77 64.5 130
t165.5 53q103 0 165.5 -56t69.5 -132h-54q-4 49 -51.5 92.5t-127.5 43.5q-75 2 -126.5 -34.5t-51.5 -96.5q0 -44 23 -73t59.5 -43t81 -24t88.5 -23t80.5 -32.5t59.5 -59t23 -97.5z" />
    <glyph glyph-name="scaron" unicode="&#x161;" horiz-adv-x="478" 
d="M88 700h57l94 -105l95 105h56l-121 -138h-60zM434 129q0 -61 -50 -100t-127 -39q-93 0 -151 39.5t-66 113.5h53q6 -51 47.5 -79t115.5 -28q56 0 90 27.5t34 66.5t-33.5 62t-81 33.5t-95 23t-81 43.5t-33.5 83q0 57 51.5 96t128.5 39q87 0 138.5 -43.5t57.5 -117.5h-53
q-4 51 -41 83t-103 32q-52 0 -88.5 -26t-36.5 -63q0 -39 33.5 -61.5t81 -33t95 -23t81 -44t33.5 -84.5z" />
    <glyph glyph-name="uni0162" unicode="&#x162;" horiz-adv-x="591" 
d="M224 -178q61 -7 106.5 7t45.5 51q0 52 -108 44v724h-232v52h519v-52h-233v-690q108 -11 108 -82q0 -46 -44.5 -71.5t-113.5 -25.5q-24 0 -48 3v40z" />
    <glyph glyph-name="uni0163" unicode="&#x163;" horiz-adv-x="308" 
d="M261 42v-52q-52 0 -92 14v-30q108 -11 108 -82q0 -46 -44.5 -71.5t-113.5 -25.5q-24 0 -48 3v40q61 -7 106.5 7t45.5 51q0 52 -108 44v92q-69 54 -69 168v418h54v-118h161v-54h-161v-246q0 -158 161 -158z" />
    <glyph glyph-name="Tcaron" unicode="&#x164;" horiz-adv-x="591" 
d="M145 900h57l94 -105l95 105h56l-121 -138h-60zM268 0v648h-232v52h519v-52h-233v-648h-54z" />
    <glyph glyph-name="tcaron" unicode="&#x165;" horiz-adv-x="323" 
d="M182 560l28 181h63v-23l-45 -158h-46zM261 42v-52q-106 0 -160.5 55t-54.5 155v418h54v-118h161v-54h-161v-246q0 -158 161 -158z" />
    <glyph glyph-name="Tbar" unicode="&#x166;" horiz-adv-x="591" 
d="M268 0v280h-122v48h122v320h-232v52h519v-52h-233v-320h126v-48h-126v-280h-54z" />
    <glyph glyph-name="tbar" unicode="&#x167;" horiz-adv-x="348" 
d="M302 42v-52q-106 0 -160.5 55t-54.5 155v46h-87v38h87v334h54v-118h161v-54h-161v-162h160v-38h-160v-46q0 -158 161 -158z" />
    <glyph glyph-name="Utilde" unicode="&#x168;" horiz-adv-x="689" 
d="M245 896q28 4 60 -17.5t65 -46t59 -24.5q21 -1 31 22t10 70h42q0 -125 -63 -134q-29 -3 -61.5 18t-63 45t-53.5 25t-37.5 -25.5t-13.5 -66.5h-42q0 58 18 94.5t49 39.5zM619 285q0 -128 -77 -211.5t-196 -83.5q-120 0 -198 83.5t-78 211.5v415h54v-415
q0 -106 62.5 -173.5t159.5 -67.5t159 67.5t62 173.5v415h52v-415z" />
    <glyph glyph-name="utilde" unicode="&#x169;" horiz-adv-x="567" 
d="M184 696q28 4 60 -17.5t65 -46t59 -24.5q21 -1 31 22t10 70h42q0 -125 -63 -134q-29 -3 -61.5 18t-63 45t-53.5 25t-37.5 -25.5t-13.5 -66.5h-42q0 58 18 94.5t49 39.5zM508 250q0 -112 -63.5 -186t-158.5 -74q-98 0 -162.5 74t-64.5 186v250h54v-250q0 -89 49 -147.5
t124 -58.5q73 0 121.5 59t48.5 147v250h52v-250z" />
    <glyph glyph-name="Umacron" unicode="&#x16a;" horiz-adv-x="689" 
d="M195 800v48h302v-48h-302zM619 285q0 -128 -77 -211.5t-196 -83.5q-120 0 -198 83.5t-78 211.5v415h54v-415q0 -106 62.5 -173.5t159.5 -67.5t159 67.5t62 173.5v415h52v-415z" />
    <glyph glyph-name="umacron" unicode="&#x16b;" horiz-adv-x="567" 
d="M134 600v48h302v-48h-302zM508 250q0 -112 -63.5 -186t-158.5 -74q-98 0 -162.5 74t-64.5 186v250h54v-250q0 -89 49 -147.5t124 -58.5q73 0 121.5 59t48.5 147v250h52v-250z" />
    <glyph glyph-name="Ubreve" unicode="&#x16c;" horiz-adv-x="689" 
d="M347 762q-69 0 -113.5 39.5t-44.5 98.5h42q0 -40 33 -67t83 -27q49 0 81.5 26.5t32.5 67.5h42q0 -59 -44.5 -98.5t-111.5 -39.5zM619 285q0 -128 -77 -211.5t-196 -83.5q-120 0 -198 83.5t-78 211.5v415h54v-415q0 -106 62.5 -173.5t159.5 -67.5t159 67.5t62 173.5v415
h52v-415z" />
    <glyph glyph-name="ubreve" unicode="&#x16d;" horiz-adv-x="567" 
d="M286 562q-69 0 -113.5 39.5t-44.5 98.5h42q0 -40 33 -67t83 -27q49 0 81.5 26.5t32.5 67.5h42q0 -59 -44.5 -98.5t-111.5 -39.5zM508 250q0 -112 -63.5 -186t-158.5 -74q-98 0 -162.5 74t-64.5 186v250h54v-250q0 -89 49 -147.5t124 -58.5q73 0 121.5 59t48.5 147v250h52
v-250z" />
    <glyph glyph-name="Uring" unicode="&#x16e;" horiz-adv-x="689" 
d="M235 846q0 37 30.5 61t78.5 24t78.5 -24t30.5 -61q0 -36 -30.5 -60t-78.5 -24t-78.5 24t-30.5 60zM343 899q-32 0 -52 -14.5t-20 -38.5q0 -23 20.5 -37.5t51.5 -14.5q33 0 53.5 14.5t20.5 37.5q0 24 -20 38.5t-54 14.5zM619 285q0 -128 -77 -211.5t-196 -83.5
q-120 0 -198 83.5t-78 211.5v415h54v-415q0 -106 62.5 -173.5t159.5 -67.5t159 67.5t62 173.5v415h52v-415z" />
    <glyph glyph-name="uring" unicode="&#x16f;" horiz-adv-x="567" 
d="M174 646q0 37 30.5 61t78.5 24t78.5 -24t30.5 -61q0 -36 -30.5 -60t-78.5 -24t-78.5 24t-30.5 60zM282 699q-32 0 -52 -14.5t-20 -38.5q0 -23 20.5 -37.5t51.5 -14.5q33 0 53.5 14.5t20.5 37.5q0 24 -20 38.5t-54 14.5zM508 250q0 -112 -63.5 -186t-158.5 -74
q-98 0 -162.5 74t-64.5 186v250h54v-250q0 -89 49 -147.5t124 -58.5q73 0 121.5 59t48.5 147v250h52v-250z" />
    <glyph glyph-name="Uhungarumlaut" unicode="&#x170;" horiz-adv-x="689" 
d="M276 762h-43l38 138h59zM447 762h-43l38 138h59zM619 285q0 -128 -77 -211.5t-196 -83.5q-120 0 -198 83.5t-78 211.5v415h54v-415q0 -106 62.5 -173.5t159.5 -67.5t159 67.5t62 173.5v415h52v-415z" />
    <glyph glyph-name="uhungarumlaut" unicode="&#x171;" horiz-adv-x="567" 
d="M210 562h-43l38 138h59zM381 562h-43l38 138h59zM508 250q0 -112 -63.5 -186t-158.5 -74q-98 0 -162.5 74t-64.5 186v250h54v-250q0 -89 49 -147.5t124 -58.5q73 0 121.5 59t48.5 147v250h52v-250z" />
    <glyph glyph-name="Uogonek" unicode="&#x172;" horiz-adv-x="689" 
d="M619 285q0 -106 -54 -183t-144 -102h1q-100 -46 -100 -108q0 -25 16 -40t41 -15q35 0 66 26v-46q-36 -24 -75 -24q-40 0 -68 26.5t-28 64.5q0 32 21 60.5t57 45.5q-127 0 -204.5 83.5t-77.5 211.5v415h54v-415q0 -106 62.5 -173.5t159.5 -67.5t159 67.5t62 173.5v415h52
v-415z" />
    <glyph glyph-name="uogonek" unicode="&#x173;" horiz-adv-x="567" 
d="M508 250q0 -92 -44.5 -160.5t-116.5 -90.5q-98 -46 -98 -107q0 -25 16 -40t41 -15q35 0 66 26v-46q-36 -24 -75 -24q-40 0 -68 26.5t-28 64.5q0 32 21 60.5t57 45.5q-96 3 -158 76.5t-62 183.5v250h54v-250q0 -89 49 -147.5t124 -58.5q73 0 121.5 59t48.5 147v250h52
v-250z" />
    <glyph glyph-name="Wcircumflex" unicode="&#x174;" horiz-adv-x="874" 
d="M286 762l121 138h60l121 -138h-56l-95 105l-94 -105h-57zM229 0l-229 700h55l198 -606l158 606h54l157 -604l197 604h55l-227 -700h-56l-153 595l-154 -595h-55z" />
    <glyph glyph-name="wcircumflex" unicode="&#x175;" horiz-adv-x="772" 
d="M235 562l121 138h60l121 -138h-56l-95 105l-94 -105h-57zM194 0l-194 500h58l162 -420l137 420h58l137 -419l163 419h57l-193 -500h-58l-135 412l-135 -412h-57z" />
    <glyph glyph-name="Ycircumflex" unicode="&#x176;" horiz-adv-x="592" 
d="M144 762l121 138h60l121 -138h-56l-95 105l-94 -105h-57zM269 263l-269 437h62l234 -379l234 379h62l-269 -437v-263h-54v263z" />
    <glyph glyph-name="ycircumflex" unicode="&#x177;" horiz-adv-x="565" 
d="M132 562l121 138h60l121 -138h-56l-95 105l-94 -105h-57zM358 -47q68 0 109.5 -37.5t42.5 -100.5h-54q-1 38 -29 62t-74 24h-177q-53 0 -86 31t-33 81q0 35 19.5 66t50.5 45q-68 71 -68 175v201h53v-201q0 -81 49 -136.5t123 -55.5t123 55.5t49 136.5v201h54v-201
q0 -99 -63.5 -170t-162.5 -71q-70 0 -124 38q-21 -10 -35 -30.5t-14 -43.5q0 -33 20.5 -51t56.5 -18h170z" />
    <glyph glyph-name="Ydieresis" unicode="&#x178;" horiz-adv-x="592" 
d="M153 870q0 17 11.5 28.5t28.5 11.5t28.5 -11.5t11.5 -28.5t-11.5 -28.5t-28.5 -11.5t-28.5 11.5t-11.5 28.5zM362 870q0 17 11.5 28.5t28.5 11.5t28.5 -11.5t11.5 -28.5t-11.5 -28.5t-28.5 -11.5t-28.5 11.5t-11.5 28.5zM269 263l-269 437h62l234 -379l234 379h62
l-269 -437v-263h-54v263z" />
    <glyph glyph-name="Zacute" unicode="&#x179;" horiz-adv-x="613" 
d="M333 762h-43l38 138h59zM59 646v54h495v-41l-426 -605h431v-54h-505v42l427 604h-422z" />
    <glyph glyph-name="zacute" unicode="&#x17a;" horiz-adv-x="515" 
d="M276 562h-43l38 138h59zM64 446v54h389v-41l-319 -405h324v-54h-399v43l317 403h-312z" />
    <glyph glyph-name="Zdotaccent" unicode="&#x17b;" horiz-adv-x="613" 
d="M266 870q0 17 11.5 28.5t28.5 11.5t28.5 -11.5t11.5 -28.5t-11.5 -28.5t-28.5 -11.5t-28.5 11.5t-11.5 28.5zM59 646v54h495v-41l-426 -605h431v-54h-505v42l427 604h-422z" />
    <glyph glyph-name="zdotaccent" unicode="&#x17c;" horiz-adv-x="515" 
d="M218 670q0 17 11.5 28.5t28.5 11.5t28.5 -11.5t11.5 -28.5t-11.5 -28.5t-28.5 -11.5t-28.5 11.5t-11.5 28.5zM64 446v54h389v-41l-319 -405h324v-54h-399v43l317 403h-312z" />
    <glyph glyph-name="Zcaron" unicode="&#x17d;" horiz-adv-x="613" 
d="M155 900h57l94 -105l95 105h56l-121 -138h-60zM59 646v54h495v-41l-426 -605h431v-54h-505v42l427 604h-422z" />
    <glyph glyph-name="zcaron" unicode="&#x17e;" horiz-adv-x="515" 
d="M107 700h57l94 -105l95 105h56l-121 -138h-60zM64 446v54h389v-41l-319 -405h324v-54h-399v43l317 403h-312z" />
    <glyph glyph-name="longs" unicode="&#x17f;" horiz-adv-x="343" 
d="M295 659q-161 0 -161 -159v-500h-52v500q0 100 53.5 155t159.5 55v-51z" />
    <glyph glyph-name="florin" unicode="&#x192;" horiz-adv-x="324" 
d="M280 659q-161 0 -161 -159h161v-54h-161v-446q0 -90 -51.5 -140.5t-143.5 -50.5v52q68 0 104.5 36t36.5 103v500q0 100 54 155t161 55v-51z" />
    <glyph glyph-name="uni0218" unicode="&#x218;" horiz-adv-x="565" 
d="M521 175q0 -75 -61.5 -130t-169.5 -55q-112 0 -180 59.5t-74 146.5h54q6 -57 55 -105.5t145 -48.5q80 0 128.5 38.5t48.5 96.5q0 46 -23 77t-59.5 46.5t-81 26.5t-88.5 23.5t-81 31t-59.5 55.5t-22.5 90q0 77 64.5 130t165.5 53q103 0 165.5 -56t69.5 -132h-54
q-4 49 -51.5 92.5t-127.5 43.5q-75 2 -126.5 -34.5t-51.5 -96.5q0 -44 23 -73t59.5 -43t81 -24t88.5 -23t80.5 -32.5t59.5 -59t23 -97.5zM233 -233l28 181h63v-23l-45 -158h-46z" />
    <glyph glyph-name="uni0219" unicode="&#x219;" horiz-adv-x="478" 
d="M434 129q0 -61 -50 -100t-127 -39q-93 0 -151 39.5t-66 113.5h53q6 -51 47.5 -79t115.5 -28q56 0 90 27.5t34 66.5t-33.5 62t-81 33.5t-95 23t-81 43.5t-33.5 83q0 57 51.5 96t128.5 39q87 0 138.5 -43.5t57.5 -117.5h-53q-4 51 -41 83t-103 32q-52 0 -88.5 -26
t-36.5 -63q0 -39 33.5 -61.5t81 -33t95 -23t81 -44t33.5 -84.5zM191 -233l28 181h63v-23l-45 -158h-46z" />
    <glyph glyph-name="uni021A" unicode="&#x21a;" horiz-adv-x="591" 
d="M268 0v648h-232v52h519v-52h-233v-648h-54zM234 -233l28 181h63v-23l-45 -158h-46z" />
    <glyph glyph-name="uni021B" unicode="&#x21b;" horiz-adv-x="308" 
d="M261 42v-52q-106 0 -160.5 55t-54.5 155v418h54v-118h161v-54h-161v-246q0 -158 161 -158zM108 -233l28 181h63v-23l-45 -158h-46z" />
    <glyph glyph-name="uni0237" unicode="&#x237;" horiz-adv-x="210" 
d="M71 670q0 18 10.5 29t28.5 11t28.5 -11t10.5 -29q0 -17 -10.5 -28.5t-28.5 -11.5t-28.5 11.5t-10.5 28.5zM-49 -159q132 0 132 159v500h54v-500q0 -103 -47 -156.5t-139 -53.5v51z" />
    <glyph glyph-name="circumflex" unicode="&#x2c6;" horiz-adv-x="302" 
d="M0 562l121 138h60l121 -138h-56l-95 105l-94 -105h-57z" />
    <glyph glyph-name="caron" unicode="&#x2c7;" horiz-adv-x="302" 
d="M0 700h57l94 -105l95 105h56l-121 -138h-60z" />
    <glyph glyph-name="breve" unicode="&#x2d8;" horiz-adv-x="456" 
d="M230 562q-69 0 -113.5 39.5t-44.5 98.5h42q0 -40 33 -67t83 -27q49 0 81.5 26.5t32.5 67.5h42q0 -59 -44.5 -98.5t-111.5 -39.5z" />
    <glyph glyph-name="dotaccent" unicode="&#x2d9;" horiz-adv-x="222" 
d="M70 670q0 17 11.5 28.5t28.5 11.5t28.5 -11.5t11.5 -28.5t-11.5 -28.5t-28.5 -11.5t-28.5 11.5t-11.5 28.5z" />
    <glyph glyph-name="ring" unicode="&#x2da;" horiz-adv-x="294" 
d="M38 646q0 37 30.5 61t78.5 24t78.5 -24t30.5 -61q0 -36 -30.5 -60t-78.5 -24t-78.5 24t-30.5 60zM146 699q-32 0 -52 -14.5t-20 -38.5q0 -23 20.5 -37.5t51.5 -14.5q33 0 53.5 14.5t20.5 37.5q0 24 -20 38.5t-54 14.5z" />
    <glyph glyph-name="ogonek" unicode="&#x2db;" horiz-adv-x="231" 
d="M201 -137v-46q-36 -24 -75 -24q-40 0 -68 26.5t-28 64.5q0 37 28 69t74 47h46q-100 -46 -100 -108q0 -25 16 -40t41 -15q35 0 66 26z" />
    <glyph glyph-name="tilde" unicode="&#x2dc;" horiz-adv-x="406" 
d="M103 696q28 4 60 -17.5t65 -46t59 -24.5q21 -1 31 22t10 70h42q0 -125 -63 -134q-29 -3 -61.5 18t-63 45t-53.5 25t-37.5 -25.5t-13.5 -66.5h-42q0 58 18 94.5t49 39.5z" />
    <glyph glyph-name="hungarumlaut" unicode="&#x2dd;" horiz-adv-x="326" 
d="M98 562h-43l38 138h59zM269 562h-43l38 138h59z" />
    <glyph glyph-name="uni0326" unicode="&#x326;" horiz-adv-x="186" 
d="M44 -233l28 181h63v-23l-45 -158h-46z" />
    <glyph glyph-name="uni0394" unicode="&#x394;" horiz-adv-x="694" 
d="M0 0l318 700h58l318 -700h-694zM83 54h528l-264 582z" />
    <glyph glyph-name="uni03A9" unicode="&#x3a9;" horiz-adv-x="857" 
d="M355 54v-54h-279v54h182q-85 47 -131.5 127t-46.5 181q0 153 97.5 250.5t250.5 97.5q154 0 251.5 -97t97.5 -251q0 -101 -47 -181t-131 -127h183v-54h-279v54q104 36 162 116.5t58 188.5q0 132 -82.5 215.5t-212.5 83.5t-213 -83.5t-83 -214.5q0 -108 58.5 -188
t164.5 -118z" />
    <glyph glyph-name="uni03BC" unicode="&#x3bc;" horiz-adv-x="567" 
d="M508 250q0 -112 -63.5 -186t-160.5 -74q-106 0 -172 88v-243h-53v665h53v-250q0 -89 48.5 -147.5t123.5 -58.5q74 0 122 58.5t48 147.5v250h54v-250z" />
    <glyph glyph-name="pi" unicode="&#x3c0;" horiz-adv-x="784" 
d="M714 42v-52q-91 0 -140.5 55t-49.5 155v248h-266v-448h-53v448h-133v52h640v-52h-134v-248q0 -77 35 -117.5t101 -40.5z" />
    <glyph glyph-name="Wgrave" unicode="&#x1e80;" horiz-adv-x="874" 
d="M416 762l-54 138h59l38 -138h-43zM229 0l-229 700h55l198 -606l158 606h54l157 -604l197 604h55l-227 -700h-56l-153 595l-154 -595h-55z" />
    <glyph glyph-name="wgrave" unicode="&#x1e81;" horiz-adv-x="772" 
d="M366 562l-54 138h59l38 -138h-43zM194 0l-194 500h58l162 -420l137 420h58l137 -419l163 419h57l-193 -500h-58l-135 412l-135 -412h-57z" />
    <glyph glyph-name="Wacute" unicode="&#x1e82;" horiz-adv-x="874" 
d="M467 762h-43l38 138h59zM229 0l-229 700h55l198 -606l158 606h54l157 -604l197 604h55l-227 -700h-56l-153 595l-154 -595h-55z" />
    <glyph glyph-name="wacute" unicode="&#x1e83;" horiz-adv-x="772" 
d="M419 562h-43l38 138h59zM194 0l-194 500h58l162 -420l137 420h58l137 -419l163 419h57l-193 -500h-58l-135 412l-135 -412h-57z" />
    <glyph glyph-name="Wdieresis" unicode="&#x1e84;" horiz-adv-x="874" 
d="M295 870q0 17 11.5 28.5t28.5 11.5t28.5 -11.5t11.5 -28.5t-11.5 -28.5t-28.5 -11.5t-28.5 11.5t-11.5 28.5zM504 870q0 17 11.5 28.5t28.5 11.5t28.5 -11.5t11.5 -28.5t-11.5 -28.5t-28.5 -11.5t-28.5 11.5t-11.5 28.5zM229 0l-229 700h55l198 -606l158 606h54l157 -604
l197 604h55l-227 -700h-56l-153 595l-154 -595h-55z" />
    <glyph glyph-name="wdieresis" unicode="&#x1e85;" horiz-adv-x="772" 
d="M244 670q0 17 11.5 28.5t28.5 11.5t28.5 -11.5t11.5 -28.5t-11.5 -28.5t-28.5 -11.5t-28.5 11.5t-11.5 28.5zM453 670q0 17 11.5 28.5t28.5 11.5t28.5 -11.5t11.5 -28.5t-11.5 -28.5t-28.5 -11.5t-28.5 11.5t-11.5 28.5zM194 0l-194 500h58l162 -420l137 420h58l137 -419
l163 419h57l-193 -500h-58l-135 412l-135 -412h-57z" />
    <glyph glyph-name="endash" unicode="&#x2013;" horiz-adv-x="627" 
d="M84 324v52h459v-52h-459z" />
    <glyph glyph-name="emdash" unicode="&#x2014;" horiz-adv-x="848" 
d="M84 324v52h680v-52h-680z" />
    <glyph glyph-name="quoteleft" unicode="&#x2018;" horiz-adv-x="184" 
d="M146 700l-32 -196h-63v22l49 174h46z" />
    <glyph glyph-name="quoteright" unicode="&#x2019;" horiz-adv-x="184" 
d="M36 504l32 196h63v-23l-47 -173h-48z" />
    <glyph glyph-name="quotesinglbase" unicode="&#x201a;" horiz-adv-x="184" 
d="M36 -136l32 197h63v-23l-47 -174h-48z" />
    <glyph glyph-name="quotedblleft" unicode="&#x201c;" horiz-adv-x="386" 
d="M146 700l-32 -196h-63v22l49 174h46zM350 700l-32 -196h-63v22l48 174h47z" />
    <glyph glyph-name="quotedblright" unicode="&#x201d;" horiz-adv-x="386" 
d="M240 504l32 196h63v-23l-49 -173h-46zM36 504l32 196h63v-23l-47 -173h-48z" />
    <glyph glyph-name="quotedblbase" unicode="&#x201e;" horiz-adv-x="386" 
d="M240 -136l32 197h63v-23l-49 -174h-46zM36 -136l32 197h63v-23l-47 -174h-48z" />
    <glyph glyph-name="dagger" unicode="&#x2020;" horiz-adv-x="410" 
d="M179 -132v684h-143v52h143v173h52v-173h144v-52h-144v-684h-52z" />
    <glyph glyph-name="daggerdbl" unicode="&#x2021;" horiz-adv-x="410" 
d="M180 -132v214h-144v52h144v418h-144v52h144v173h52v-173h143v-52h-143v-418h143v-52h-143v-214h-52z" />
    <glyph glyph-name="bullet" unicode="&#x2022;" horiz-adv-x="287" 
d="M72 350q0 33 19.5 52.5t52.5 19.5q32 0 51.5 -19.5t19.5 -52.5q0 -32 -19.5 -51.5t-51.5 -19.5q-33 0 -52.5 19.5t-19.5 51.5z" />
    <glyph glyph-name="ellipsis" unicode="&#x2026;" horiz-adv-x="666" 
d="M72 31q0 17 10.5 28.5t28.5 11.5t28.5 -11.5t10.5 -28.5q0 -18 -10.5 -29.5t-28.5 -11.5t-28.5 11.5t-10.5 29.5zM294 31q0 17 10.5 28.5t28.5 11.5t28.5 -11.5t10.5 -28.5q0 -18 -10.5 -29.5t-28.5 -11.5t-28.5 11.5t-10.5 29.5zM516 31q0 17 10.5 28.5t28.5 11.5
t28.5 -11.5t10.5 -28.5q0 -18 -10.5 -29.5t-28.5 -11.5t-28.5 11.5t-10.5 29.5z" />
    <glyph glyph-name="perthousand" unicode="&#x2030;" horiz-adv-x="1403" 
d="M44 515q0 81 57 138t138 57q82 0 139 -56.5t57 -138.5q0 -81 -57.5 -138.5t-138.5 -57.5q-80 0 -137.5 58t-57.5 138zM239 664q-61 0 -104 -43.5t-43 -105.5t43 -105.5t104 -43.5q62 0 105.5 43.5t43.5 105.5q0 61 -44 105t-105 44zM234 75l463 577l35 -29l-463 -577z
M519 186q0 81 57 138t138 57t138 -57t57 -138t-57 -138.5t-138 -57.5t-138 57.5t-57 138.5zM968 186q0 81 57.5 138t137.5 57q82 0 139 -57t57 -138t-57 -138.5t-139 -57.5q-80 0 -137.5 57.5t-57.5 138.5zM714 335q-61 0 -104.5 -43.5t-43.5 -105.5t43 -105.5t105 -43.5
t105 43.5t43 105.5t-43 105.5t-105 43.5zM1163 335q-61 0 -104 -43.5t-43 -105.5t43 -105.5t104 -43.5q62 0 105.5 43.5t43.5 105.5t-44 105.5t-105 43.5z" />
    <glyph glyph-name="guilsinglleft" unicode="&#x2039;" horiz-adv-x="454" 
d="M70 338v25l276 239l37 -39l-249 -213l249 -213l-37 -39z" />
    <glyph glyph-name="guilsinglright" unicode="&#x203a;" horiz-adv-x="454" 
d="M108 98l-36 39l249 213l-249 213l36 39l276 -239v-25z" />
    <glyph glyph-name="fraction" unicode="&#x2044;" horiz-adv-x="290" 
d="M36 0l165 700h53l-165 -700h-53z" />
    <glyph glyph-name="franc" unicode="&#x20a3;" horiz-adv-x="701" 
d="M197 0v140h-153v48h153v512h434v-52h-382v-272h371v-52h-371v-136h175v-48h-175v-140h-52z" />
    <glyph glyph-name="lira" unicode="&#x20a4;" horiz-adv-x="671" 
d="M88 54q46 12 73 55.5t27 105.5v10h-106v38h106v154h-106v38h106v17q0 108 58 168t163 60h143v-54h-140q-83 0 -127.5 -44.5t-44.5 -129.5v-17h282v-38h-282v-154h282v-38h-282v-12q0 -104 -65 -159h415v-54h-502v54z" />
    <glyph glyph-name="peseta" unicode="&#x20a7;" horiz-adv-x="1402" 
d="M84 0v700h224q115 0 185.5 -63.5t70.5 -160.5t-71 -160.5t-185 -63.5h-172v-252h-52zM511 476q0 74 -55.5 122t-147.5 48h-172v-340h172q92 0 147.5 48t55.5 122zM875 42v-52q-106 0 -160.5 55t-54.5 155v418h54v-118h161v-54h-161v-246q0 -158 161 -158zM1358 129
q0 -61 -50 -100t-127 -39q-93 0 -151 39.5t-66 113.5h53q6 -51 47.5 -79t115.5 -28q56 0 90 27.5t34 66.5t-33.5 62t-81 33.5t-95 23t-81 43.5t-33.5 83q0 57 51.5 96t128.5 39q87 0 138.5 -43.5t57.5 -117.5h-53q-4 51 -41 83t-103 32q-52 0 -88.5 -26t-36.5 -63
q0 -39 33.5 -61.5t81 -33t95 -23t81 -44t33.5 -84.5z" />
    <glyph glyph-name="Euro" unicode="&#x20ac;" horiz-adv-x="820" 
d="M484 660q-83 0 -145.5 -55.5t-86.5 -147.5h309l-11 -42h-306q-5 -35 -5 -65q0 -39 6 -75h285l-11 -42h-264q26 -88 87.5 -140.5t142.5 -52.5q80 0 147 58t88 144h56q-28 -111 -108 -181.5t-183 -70.5q-106 0 -182 66.5t-104 176.5h-163l10 42h145q-6 36 -6 75q0 37 4 65
h-122l10 42h120q26 114 104 183.5t184 69.5q103 0 183 -70.5t108 -181.5h-56q-21 87 -88 144.5t-148 57.5z" />
    <glyph glyph-name="uni20BA" unicode="&#x20ba;" horiz-adv-x="747" 
d="M230 0h-33v285l-125 -35v46l125 35v130l-125 -35v44l125 35v195h53v-180l221 62v-45l-221 -61v-130l221 62v-47l-221 -61v-110zM634 336h52q-26 -164 -143 -250t-313 -86l18 58q332 0 386 278z" />
    <glyph glyph-name="uni2113" unicode="&#x2113;" horiz-adv-x="488" 
d="M337 40v-50q-107 0 -160.5 55t-53.5 155v35q-37 -5 -69 -5v50q40 2 69 7v204q0 102 41.5 160.5t112.5 58.5q75 0 116 -50t41 -138q0 -96 -72 -171.5t-187 -105.5v-45q0 -160 162 -160zM175 485v-187q94 27 151.5 86.5t57.5 134.5q0 139 -106 139q-49 0 -76 -45t-27 -128z
" />
    <glyph glyph-name="trademark" unicode="&#x2122;" horiz-adv-x="849" 
d="M163 306v358h-127v36h292v-36h-127v-358h-38zM391 306v394h29l158 -238l158 238h29v-394h-37v318l-142 -212h-16l-143 214v-320h-36z" />
    <glyph glyph-name="estimated" unicode="&#x212e;" horiz-adv-x="618" 
d="M494 204l26 -20q-37 -48 -92.5 -75.5t-118.5 -27.5q-112 0 -190.5 79t-78.5 190t78.5 190t190.5 79q111 0 190 -79t79 -190q0 -11 -1 -16h-447v-138q71 -82 179 -82q113 0 185 90zM130 504v-138h349v147q-71 73 -170 73q-108 0 -179 -82z" />
    <glyph glyph-name="partialdiff" unicode="&#x2202;" horiz-adv-x="585" 
d="M534 231q-18 -106 -97.5 -173.5t-187.5 -67.5t-165 67t-39 172q17 98 98 162t187 64q95 0 152 -52q-42 204 -309 253l10 54q208 -35 296 -159.5t56 -315.5v-1zM322 407q-84 0 -147 -50.5t-76 -127.5q-15 -81 30 -133t130 -52q83 0 145 51.5t78 133.5q12 73 -32.5 125.5
t-127.5 52.5z" />
    <glyph glyph-name="product" unicode="&#x220f;" horiz-adv-x="705" 
d="M82 -225v925h541v-925h-53v873h-436v-873h-52z" />
    <glyph glyph-name="summation" unicode="&#x2211;" horiz-adv-x="667" 
d="M82 -171l257 447l-257 447v54h505v-54h-442l255 -447l-257 -447h444v-54h-505v54z" />
    <glyph glyph-name="minus" unicode="&#x2212;" horiz-adv-x="605" 
d="M84 324v52h437v-52h-437z" />
    <glyph glyph-name="uni2215" unicode="&#x2215;" horiz-adv-x="290" 
d="M36 0l165 700h53l-165 -700h-53z" />
    <glyph glyph-name="radical" unicode="&#x221a;" horiz-adv-x="699" 
d="M378 0l-181 335h-125v54h154l176 -320l224 631h56l-248 -700h-56z" />
    <glyph glyph-name="infinity" unicode="&#x221e;" horiz-adv-x="1003" 
d="M56 351q0 94 61 160.5t148 66.5q72 0 125.5 -46.5t111.5 -136.5q59 91 112.5 137t125.5 46q86 0 147.5 -66.5t61.5 -160.5t-61.5 -161t-147.5 -67q-49 0 -93.5 26t-75 62t-69.5 96q-59 -91 -112 -137.5t-125 -46.5q-87 0 -148 67t-61 161zM106 352q0 -75 46.5 -127
t113.5 -52q53 0 102 42.5t106 136.5q-61 95 -108.5 135.5t-99.5 40.5q-67 0 -113.5 -51t-46.5 -125zM899 352q0 74 -46.5 125t-113.5 51q-53 0 -101 -41t-108 -135q58 -94 107 -136.5t102 -42.5q67 0 113.5 52t46.5 127z" />
    <glyph glyph-name="integral" unicode="&#x222b;" horiz-adv-x="339" 
d="M292 659q-161 0 -161 -159v-500q0 -100 -54 -155t-161 -55v51q161 0 161 159v500q0 100 54.5 155t160.5 55v-51z" />
    <glyph glyph-name="approxequal" unicode="&#x2248;" horiz-adv-x="406" 
d="M103 527q28 4 60 -17.5t65 -46t59 -24.5q21 -1 31 22t10 70h42q0 -125 -63 -134q-29 -3 -61.5 18t-63 45t-53.5 25t-37.5 -25.5t-13.5 -66.5h-42q0 58 18 94.5t49 39.5zM103 331q28 4 60 -17.5t65 -46t59 -24.5q21 -1 31 22t10 70h42q0 -125 -63 -134q-29 -3 -61.5 18
t-63 45t-53.5 25t-37.5 -25.5t-13.5 -66.5h-42q0 58 18 94.5t49 39.5z" />
    <glyph glyph-name="notequal" unicode="&#x2260;" horiz-adv-x="582" 
d="M85 444v54h214l48 202h53l-48 -202h147v-54h-159l-44 -185h202v-54h-215l-48 -205h-53l48 205h-146v54h159l44 185h-202z" />
    <glyph glyph-name="lessequal" unicode="&#x2264;" horiz-adv-x="508" 
d="M96 428v18l282 195l36 -37l-244 -167l244 -165l-36 -37zM72 60v49h366v-49h-366z" />
    <glyph glyph-name="greaterequal" unicode="&#x2265;" horiz-adv-x="508" 
d="M130 235l-36 37l244 165l-244 167l36 37l284 -195v-18zM437 60h-365v49h365v-49z" />
    <glyph glyph-name="lozenge" unicode="&#x25ca;" horiz-adv-x="755" 
d="M82 238l265 462h61l265 -462l-265 -463h-61zM377 -172l235 410l-235 409l-235 -409z" />
    <glyph glyph-name="longs_t" unicode="&#xfb05;" horiz-adv-x="592" 
d="M546 42v-52q-106 0 -160.5 55t-54.5 155v459h-66q-161 0 -161 -165v-494h-54v494q0 102 54 159t161 57h120v-210h161v-54h-161v-246q0 -158 161 -158z" />
    <glyph glyph-name="NULL" horiz-adv-x="0" 
 />
    <glyph glyph-name="g.ss01" horiz-adv-x="584" 
d="M484 31v84q-31 -55 -84 -87t-116 -32q-101 0 -170.5 74t-69.5 183q0 113 69.5 185t176.5 72q110 0 178.5 -73t68.5 -185v-221q0 -110 -69 -183t-173 -73q-91 0 -156 54.5t-78 141.5h54q13 -64 62.5 -103t117.5 -39q81 0 135 57t54 145zM290 458q-87 0 -139.5 -59.5
t-52.5 -145.5q0 -88 55 -146.5t137 -58.5t138 59t56 145q0 87 -52.5 146.5t-141.5 59.5z" />
    <glyph glyph-name="gbreve.ss01" horiz-adv-x="565" 
d="M285 562q-69 0 -113.5 39.5t-44.5 98.5h42q0 -40 33 -67t83 -27q49 0 81.5 26.5t32.5 67.5h42q0 -59 -44.5 -98.5t-111.5 -39.5zM484 31v84q-31 -55 -84 -87t-116 -32q-101 0 -170.5 74t-69.5 183q0 113 69.5 185t176.5 72q110 0 178.5 -73t68.5 -185v-221
q0 -110 -69 -183t-173 -73q-91 0 -156 54.5t-78 141.5h54q13 -64 62.5 -103t117.5 -39q81 0 135 57t54 145zM290 458q-87 0 -139.5 -59.5t-52.5 -145.5q0 -88 55 -146.5t137 -58.5t138 59t56 145q0 87 -52.5 146.5t-141.5 59.5z" />
    <glyph glyph-name="gcircumflex.ss01" horiz-adv-x="565" 
d="M132 562l121 138h60l121 -138h-56l-95 105l-94 -105h-57zM484 31v84q-31 -55 -84 -87t-116 -32q-101 0 -170.5 74t-69.5 183q0 113 69.5 185t176.5 72q110 0 178.5 -73t68.5 -185v-221q0 -110 -69 -183t-173 -73q-91 0 -156 54.5t-78 141.5h54q13 -64 62.5 -103
t117.5 -39q81 0 135 57t54 145zM290 458q-87 0 -139.5 -59.5t-52.5 -145.5q0 -88 55 -146.5t137 -58.5t138 59t56 145q0 87 -52.5 146.5t-141.5 59.5z" />
    <glyph glyph-name="gcommaaccent.ss01" horiz-adv-x="565" 
d="M347 759l-28 -181h-63v23l45 158h46zM484 31v84q-31 -55 -84 -87t-116 -32q-101 0 -170.5 74t-69.5 183q0 113 69.5 185t176.5 72q110 0 178.5 -73t68.5 -185v-221q0 -110 -69 -183t-173 -73q-91 0 -156 54.5t-78 141.5h54q13 -64 62.5 -103t117.5 -39q81 0 135 57
t54 145zM290 458q-87 0 -139.5 -59.5t-52.5 -145.5q0 -88 55 -146.5t137 -58.5t138 59t56 145q0 87 -52.5 146.5t-141.5 59.5z" />
    <glyph glyph-name="gdotaccent.ss01" horiz-adv-x="565" 
d="M243 670q0 17 11.5 28.5t28.5 11.5t28.5 -11.5t11.5 -28.5t-11.5 -28.5t-28.5 -11.5t-28.5 11.5t-11.5 28.5zM484 31v84q-31 -55 -84 -87t-116 -32q-101 0 -170.5 74t-69.5 183q0 113 69.5 185t176.5 72q110 0 178.5 -73t68.5 -185v-221q0 -110 -69 -183t-173 -73
q-91 0 -156 54.5t-78 141.5h54q13 -64 62.5 -103t117.5 -39q81 0 135 57t54 145zM290 458q-87 0 -139.5 -59.5t-52.5 -145.5q0 -88 55 -146.5t137 -58.5t138 59t56 145q0 87 -52.5 146.5t-141.5 59.5z" />
    <glyph glyph-name="y.ss02" horiz-adv-x="512" 
d="M229 0l-229 500h58l201 -435l195 435h58l-307 -683h-57l82 183h-1z" />
    <glyph glyph-name="yacute.ss02" horiz-adv-x="512" 
d="M284 562h-43l38 138h59zM229 0l-229 500h58l201 -435l195 435h58l-307 -683h-57l82 183h-1z" />
    <glyph glyph-name="ycircumflex.ss02" horiz-adv-x="512" 
d="M110 562l121 138h60l121 -138h-56l-95 105l-94 -105h-57zM229 0l-229 500h58l201 -435l195 435h58l-307 -683h-57l82 183h-1z" />
    <glyph glyph-name="ydieresis.ss02" horiz-adv-x="512" 
d="M117 670q0 17 11.5 28.5t28.5 11.5t28.5 -11.5t11.5 -28.5t-11.5 -28.5t-28.5 -11.5t-28.5 11.5t-11.5 28.5zM326 670q0 17 11.5 28.5t28.5 11.5t28.5 -11.5t11.5 -28.5t-11.5 -28.5t-28.5 -11.5t-28.5 11.5t-11.5 28.5zM229 0l-229 500h58l201 -435l195 435h58
l-307 -683h-57l82 183h-1z" />
    <glyph glyph-name="ygrave.ss02" horiz-adv-x="512" 
d="M249 562l-54 138h59l38 -138h-43zM229 0l-229 500h58l201 -435l195 435h58l-307 -683h-57l82 183h-1z" />
    </font>
</defs>
</svg>
