<?xml version="1.0" standalone="no"?>
<!DOCTYPE svg PUBLIC "-//W3C//DTD SVG 20010904//EN"
 "http://www.w3.org/TR/2001/REC-SVG-20010904/DTD/svg10.dtd">
<svg version="1.0" xmlns="http://www.w3.org/2000/svg"
 width="134.000000pt" height="198.000000pt" viewBox="0 0 134.000000 198.000000"
 preserveAspectRatio="xMidYMid meet">

<g transform="translate(0.000000,198.000000) scale(0.100000,-0.100000)"
fill="#000000" stroke="none">
<path d="M0 1301 l0 -679 37 4 c153 16 286 22 329 16 28 -5 77 -23 109 -41
l58 -33 -6 34 c-4 18 -9 76 -13 129 l-7 97 -56 -1 c-113 0 -233 55 -291 134
-46 64 -80 199 -49 199 5 0 52 -12 102 -26 154 -44 211 -80 269 -168 36 -56
38 -58 38 -28 0 30 24 167 35 204 6 16 1 18 -37 18 -57 0 -130 43 -195 114
-75 81 -103 145 -102 225 2 78 10 123 24 128 6 2 67 -52 135 -119 91 -89 134
-140 158 -184 17 -34 32 -69 32 -78 0 -29 15 -16 43 38 16 30 48 84 71 119
l43 65 -40 12 c-49 15 -120 79 -147 134 -39 82 -18 196 55 294 38 51 62 65 69
40 2 -7 29 -93 60 -191 31 -97 56 -186 56 -198 0 -17 10 -11 60 33 57 50 60
55 60 99 0 50 26 98 70 131 26 19 175 78 198 78 18 0 15 -31 -8 -94 -43 -114
-112 -176 -201 -180 -47 -2 -54 -7 -107 -60 -48 -48 -52 -55 -29 -46 52 19
159 11 280 -20 67 -17 142 -30 176 -30 l61 0 0 255 0 255 -670 0 -670 0 0
-679z"/>
<path d="M654 1815 c2 -106 8 -123 76 -244 26 -46 30 -50 30 -27 0 14 -22 95
-49 179 -27 83 -51 161 -54 172 -3 11 -5 -25 -3 -80z"/>
<path d="M587 1858 c-70 -121 -59 -228 31 -310 64 -58 95 -70 49 -18 -76 84
-95 174 -61 302 8 33 13 62 10 65 -2 2 -15 -15 -29 -39z"/>
<path d="M1025 1826 c-58 -27 -105 -77 -105 -112 0 -22 4 -20 48 24 26 26 65
62 87 80 48 37 38 40 -30 8z"/>
<path d="M616 1778 c-10 -56 -2 -105 26 -169 20 -48 83 -118 94 -106 4 3 -11
37 -33 74 -52 89 -64 122 -73 191 l-6 57 -8 -47z"/>
<path d="M1022 1764 c-29 -25 -57 -55 -63 -66 l-11 -21 28 21 c39 27 109 100
103 107 -3 2 -28 -16 -57 -41z"/>
<path d="M1107 1776 c-37 -47 -86 -96 -122 -118 -27 -18 -28 -19 -5 -13 47 12
103 60 132 113 34 60 32 67 -5 18z"/>
<path d="M240 1503 c0 -76 33 -146 102 -219 54 -58 113 -97 161 -108 40 -9 33
-2 -28 33 -31 17 -74 48 -97 69 -40 36 -98 139 -98 175 0 32 -22 107 -31 107
-5 0 -9 -26 -9 -57z"/>
<path d="M325 1490 c31 -62 104 -169 131 -191 10 -8 7 1 -8 21 -14 19 -49 73
-78 120 -63 103 -82 124 -45 50z"/>
<path d="M865 1510 c-29 -7 -29 -8 10 -9 22 -1 85 -8 139 -16 55 -8 101 -13
103 -12 4 5 -131 35 -182 41 -22 2 -53 1 -70 -4z"/>
<path d="M410 1420 c28 -47 68 -105 88 -129 21 -25 43 -52 50 -60 7 -9 4 7 -7
36 -22 61 -71 130 -136 193 l-47 45 52 -85z"/>
<path d="M300 1469 c-1 -69 80 -183 161 -228 l44 -25 -66 71 c-37 39 -83 99
-103 134 -19 35 -36 57 -36 48z"/>
<path d="M910 1460 c41 -11 122 -23 180 -25 l105 -5 -90 19 c-49 11 -130 22
-180 25 l-90 5 75 -19z"/>
<path d="M709 1387 c-26 -39 -58 -92 -72 -117 l-26 -45 82 0 c79 0 86 -2 202
-57 66 -32 133 -58 148 -58 65 0 30 -64 -61 -111 -40 -20 -61 -24 -137 -24
-108 1 -175 26 -231 87 -19 22 -37 38 -39 36 -5 -4 -35 -174 -35 -195 0 -11 4
-11 21 -2 42 22 120 5 236 -50 61 -28 142 -59 182 -68 82 -20 90 -35 40 -78
-64 -53 -108 -70 -189 -69 -117 1 -209 50 -262 139 l-30 50 6 -112 c7 -134 11
-147 40 -138 11 4 58 9 103 12 97 6 146 -6 248 -66 38 -22 88 -43 112 -47 24
-3 43 -11 43 -18 -1 -18 -85 -76 -147 -102 -124 -51 -252 -14 -336 95 -17 22
-32 39 -33 38 -1 -1 7 -49 17 -107 22 -115 29 -258 16 -332 l-8 -48 370 0 371
0 0 726 0 727 -32 -41 c-74 -91 -153 -134 -246 -134 -83 0 -192 51 -251 119
-23 25 -41 50 -41 54 0 22 -19 3 -61 -64z"/>
<path d="M809 1431 c13 -18 44 -48 70 -67 117 -85 241 -85 346 0 l30 25 -55
-26 c-82 -39 -163 -38 -255 5 -38 18 -83 43 -100 56 -52 39 -60 41 -36 7z"/>
<path d="M883 1425 c109 -77 202 -88 307 -39 l65 31 -90 -5 c-80 -4 -195 9
-295 34 -20 5 -18 1 13 -21z"/>
<path d="M645 1193 c16 -16 214 -90 274 -102 56 -12 84 -9 34 3 -15 4 -72 27
-126 52 -90 41 -206 71 -182 47z"/>
<path d="M845 1160 c44 -22 85 -39 90 -39 14 0 -115 65 -145 73 -14 3 11 -12
55 -34z"/>
<path d="M649 1136 c76 -78 183 -113 284 -93 47 10 41 22 -16 30 -24 3 -98 27
-165 52 -67 25 -125 45 -129 45 -4 0 8 -15 26 -34z"/>
<path d="M600 1132 c0 -31 46 -80 104 -110 44 -23 63 -27 141 -27 81 0 95 3
138 28 26 15 47 29 47 31 0 2 -24 -5 -52 -16 -114 -45 -227 -20 -332 73 -39
35 -46 38 -46 21z"/>
<path d="M255 1082 c43 -24 115 -72 198 -132 l21 -15 -19 34 c-27 46 -97 96
-169 121 -81 27 -91 25 -31 -8z"/>
<path d="M190 1066 c29 -32 98 -83 155 -115 22 -12 29 -14 15 -4 -14 10 -63
47 -110 82 -47 35 -74 52 -60 37z"/>
<path d="M178 1033 c29 -42 74 -79 131 -107 71 -36 102 -41 42 -7 -62 35 -111
71 -160 115 l-34 31 21 -32z"/>
<path d="M250 1057 c0 -5 135 -102 168 -121 29 -17 8 5 -40 41 -61 45 -128 87
-128 80z"/>
<path d="M175 982 c47 -71 165 -133 249 -131 26 0 22 3 -24 18 -81 26 -149 63
-204 112 l-49 44 28 -43z"/>
<path d="M740 816 c74 -30 153 -57 175 -60 l40 -6 -45 14 c-25 7 -90 34 -146
59 -56 26 -114 47 -130 47 -19 0 16 -19 106 -54z"/>
<path d="M610 811 c87 -78 186 -112 287 -96 l48 7 -55 15 c-30 7 -100 33 -156
57 -56 24 -117 47 -135 51 l-34 7 45 -41z"/>
<path d="M625 742 c17 -19 47 -42 67 -53 55 -28 60 -23 8 7 -25 14 -58 37 -75
52 l-30 27 30 -33z"/>
<path d="M765 689 c19 -7 132 -13 124 -5 -2 2 -35 6 -74 8 -40 3 -61 2 -50 -3z"/>
<path d="M758 663 c7 -3 16 -2 19 1 4 3 -2 6 -13 5 -11 0 -14 -3 -6 -6z"/>
<path d="M888 663 c7 -3 16 -2 19 1 4 3 -2 6 -13 5 -11 0 -14 -3 -6 -6z"/>
<path d="M818 653 c12 -2 30 -2 40 0 9 3 -1 5 -23 4 -22 0 -30 -2 -17 -4z"/>
<path d="M250 621 l-45 -7 60 -8 c33 -5 94 -14 135 -21 65 -11 72 -11 55 1
-24 18 -112 45 -139 42 -12 0 -41 -4 -66 -7z"/>
<path d="M190 569 c80 -20 300 -37 245 -19 -36 12 -154 28 -250 33 l-70 5 75
-19z"/>
<path d="M0 288 l0 -288 284 0 284 0 11 44 c17 68 13 177 -10 312 -12 67 -25
127 -29 133 -4 8 -26 0 -65 -23 -80 -49 -116 -59 -193 -54 -86 5 -145 33 -222
107 l-60 57 0 -288z"/>
<path d="M75 554 c68 -54 166 -72 292 -53 l88 13 -110 7 c-60 4 -147 16 -192
28 -96 25 -104 25 -78 5z"/>
<path d="M663 563 c9 -2 25 -2 35 0 9 3 1 5 -18 5 -19 0 -27 -2 -17 -5z"/>
<path d="M789 539 c41 -10 76 -17 79 -15 6 7 -99 36 -127 35 -14 0 7 -9 48
-20z"/>
<path d="M642 500 c53 -28 144 -50 203 -49 27 1 41 3 30 6 -11 2 -67 18 -124
34 -124 35 -164 38 -109 9z"/>
<path d="M768 513 c7 -3 16 -2 19 1 4 3 -2 6 -13 5 -11 0 -14 -3 -6 -6z"/>
<path d="M838 493 c7 -3 16 -2 19 1 4 3 -2 6 -13 5 -11 0 -14 -3 -6 -6z"/>
<path d="M390 469 c-36 -10 -82 -18 -102 -18 -20 -1 -40 -6 -44 -13 -13 -20
122 -1 179 26 61 29 55 30 -33 5z"/>
<path d="M878 483 c7 -3 16 -2 19 1 4 3 -2 6 -13 5 -11 0 -14 -3 -6 -6z"/>
<path d="M208 443 c7 -3 16 -2 19 1 4 3 -2 6 -13 5 -11 0 -14 -3 -6 -6z"/>
<path d="M715 428 c34 -20 54 -23 135 -23 62 0 102 5 115 13 17 11 10 13 -50
8 -64 -5 -173 5 -221 19 -10 4 -1 -4 21 -17z"/>
<path d="M714 391 c8 -13 90 -31 133 -30 31 1 27 3 -22 10 -33 5 -73 13 -88
19 -15 5 -25 5 -23 1z"/>
<path d="M898 373 c7 -3 16 -2 19 1 4 3 -2 6 -13 5 -11 0 -14 -3 -6 -6z"/>
</g>
</svg>
