<?xml version="1.0" encoding="UTF-8" standalone="no"?>
<svg
   xmlns:dc="http://purl.org/dc/elements/1.1/"
   xmlns:cc="http://creativecommons.org/ns#"
   xmlns:rdf="http://www.w3.org/1999/02/22-rdf-syntax-ns#"
   xmlns:svg="http://www.w3.org/2000/svg"
   xmlns="http://www.w3.org/2000/svg"
   xmlns:sodipodi="http://sodipodi.sourceforge.net/DTD/sodipodi-0.dtd"
   xmlns:inkscape="http://www.inkscape.org/namespaces/inkscape"
   version="1.0"
   width="899.000000pt"
   height="904.000000pt"
   viewBox="0 0 899.000000 904.000000"
   preserveAspectRatio="xMidYMid meet"
   id="svg48"
   sodipodi:docname="favicon.svg"
   inkscape:version="1.0.2 (e86c870879, 2021-01-15)">
  <metadata
     id="metadata54">
    <rdf:RDF>
      <cc:Work
         rdf:about="">
        <dc:format>image/svg+xml</dc:format>
        <dc:type
           rdf:resource="http://purl.org/dc/dcmitype/StillImage" />
      </cc:Work>
    </rdf:RDF>
  </metadata>
  <defs
     id="defs52" />
  <sodipodi:namedview
     pagecolor="#ffffff"
     bordercolor="#666666"
     borderopacity="1"
     objecttolerance="10"
     gridtolerance="10"
     guidetolerance="10"
     inkscape:pageopacity="0"
     inkscape:pageshadow="2"
     inkscape:window-width="1920"
     inkscape:window-height="1012"
     id="namedview50"
     showgrid="false"
     inkscape:zoom="0.6761615"
     inkscape:cx="599.33333"
     inkscape:cy="601.18773"
     inkscape:window-x="0"
     inkscape:window-y="0"
     inkscape:window-maximized="1"
     inkscape:current-layer="svg48" />
  <g
     transform="translate(0.000000,904.000000) scale(0.100000,-0.100000)"
     fill="#000000"
     stroke="none"
     id="g46">
    <path
       d="M0 4520 l0 -4520 4495 0 4495 0 0 4520 0 4520 -4495 0 -4495 0 0 -4520z m4915 4369 c2105 -172 3568 -1526 3859 -3569 41 -286 51 -436 51 -770 0 -334 -10 -484 -51 -769 -274 -1926 -1586 -3243 -3514 -3531 -349 -52 -883 -70 -1215 -41 -647 57 -1187 201 -1700 454 -1308 647 -2098 1896 -2216 3505 -24 329 -4 850 46 1182 137 924 530 1734 1135 2341 219 220 383 353 626 512 664 431 1421 659 2334 701 115 5 511 -4 645 -15z"
       id="path42" />
    <path
       d="M4385 8784 c-442 -27 -830 -180 -1160 -456 -514 -430 -886 -1094 -1104 -1973 -86 -346 -141 -699 -183 -1175 -20 -229 -17 -1074 5 -1320 55 -616 152 -1103 313 -1571 396 -1153 1105 -1845 1998 -1950 158 -19 453 -6 602 25 932 196 1630 1038 1964 2368 142 566 203 1108 204 1808 0 631 -45 1108 -155 1620 -299 1397 -991 2325 -1912 2564 -163 42 -417 69 -572 60z m415 -2057 l0 -54 -125 -7 c-226 -12 -334 -44 -427 -126 -56 -49 -83 -110 -98 -220 -8 -60 -10 -526 -8 -1565 3 -1392 4 -1483 21 -1533 22 -66 65 -115 118 -136 60 -24 246 -36 589 -36 711 0 891 45 1115 281 108 114 207 277 303 497 l31 73 38 -7 c21 -4 43 -9 49 -13 7 -4 -41 -170 -138 -476 -81 -258 -157 -500 -169 -537 l-20 -68 -1539 0 -1540 0 0 55 0 55 103 0 c183 0 300 40 378 129 46 51 64 107 79 236 13 121 13 2897 0 3020 -16 140 -41 212 -92 261 -83 80 -190 114 -365 114 l-103 0 0 55 0 55 900 0 900 0 0 -53z"
       id="path44" />
  </g>
  <path
     style="fill:#ffcc00;stroke-width:1.47894"
     d="M 544.61268,1177.1106 C 332.74441,1160.9995 166.29948,1056.1087 80.269158,884.48901 48.962789,822.03674 29.773089,754.8195 20.0788,673.65562 16.402789,642.87881 16.430168,563.44008 20.129518,526.50143 31.968508,408.28709 72.746654,304.10785 140.24915,219.62209 157.77304,197.68928 201.30846,154.56293 222.17667,138.46436 309.82428,70.849545 411.6213,32.654018 534.26012,21.366716 c 22.07043,-2.031295 36.65341,-2.353621 75.42577,-1.667129 48.39159,0.856807 66.45078,2.345859 103.52556,8.536093 146.57742,24.473474 267.82627,95.20611 349.62075,203.95737 20.2813,26.96534 32.95,47.4339 48.9721,79.12311 32.2174,63.72116 51.057,129.21676 60.6212,210.74846 3.23,27.53478 4.4706,92.29513 2.38,124.23068 -6.0936,93.0805 -31.6611,184.8902 -71.4501,256.56758 -80.6441,145.27552 -216.69571,237.47182 -393.84129,266.88932 -46.48468,7.7194 -118.11821,10.9159 -164.90143,7.3584 z m 73.8256,-16.1874 c 23.60779,-1.8009 36.68248,-4.343 57.69493,-11.2177 141.89036,-46.4229 235.42625,-211.12558 257.75373,-453.86583 2.63641,-28.66263 2.60784,-167.02607 -0.0404,-195.21963 C 917.9828,331.72589 869.20572,202.29754 790.11642,119.23658 754.56165,81.896344 708.51135,53.838481 663.65093,42.182762 622.05064,31.374096 573.28278,31.069252 532.95521,41.365792 485.55423,53.468338 446.24719,76.353945 408.4121,113.87812 336.26496,185.43237 287.83919,295.6337 266.73627,436.2863 c -9.13904,60.91244 -9.77871,71.53737 -9.74981,161.94356 0.0225,70.4883 0.45446,88.17618 2.63636,107.96237 8.25552,74.86358 19.29782,129.36286 37.4566,184.86707 48.30975,147.6637 134.12365,240.9224 244.20691,265.3932 25.53579,5.6765 45.88649,6.8557 77.15195,4.4707 z"
     id="path56"
     transform="scale(0.75)" />
  <path
     style="fill:#ffcc00;stroke-width:1.47894"
     d="m 401.15583,824.71017 v -6.4522 l 17.3775,-0.75522 c 25.53802,-1.10985 39.73765,-7.02354 48.78945,-20.31923 9.08983,-13.35156 9.49597,-24.59273 8.87174,-245.55149 -0.49627,-175.6644 -0.75237,-192.3064 -3.09508,-201.12405 -3.28348,-12.35857 -8.2443,-19.7655 -16.92653,-25.27277 -9.94979,-6.3113 -19.42699,-8.72176 -38.37904,-9.76145 l -16.63804,-0.91274 v -6.42898 -6.42897 h 119.05439 119.0544 v 6.42389 6.42389 l -20.33538,1.72454 c -29.34127,2.48829 -41.29599,6.13167 -52.07628,15.87102 -7.55104,6.82191 -11.07589,13.45629 -13.31076,25.05316 -1.24787,6.4752 -1.58175,63.38772 -1.24921,212.93049 0.43569,195.93184 0.56426,204.30024 3.21497,209.26953 6.6682,12.50082 12.10205,15.63878 30.92491,17.85868 21.71306,2.56076 131.01349,1.00846 148.50259,-2.10907 27.83622,-4.96195 43.31665,-13.00455 61.6281,-32.01791 15.20429,-15.78707 21.96099,-26.0024 35.99927,-54.42655 l 11.17634,-22.62942 4.6159,0.98785 c 2.53874,0.54334 4.79404,1.14376 5.01179,1.33426 0.60683,0.53094 -7.7961,28.68686 -26.3773,88.38307 l -16.90776,54.31995 -204.46299,0.031 -204.46298,0.0309 z"
     id="path58"
     transform="scale(0.75)" />
</svg>
